<svg width="1142" height="218" viewBox="0 0 1142 218" fill="none" xmlns="http://www.w3.org/2000/svg">
<path opacity="0.6" d="M117 149H208V169H117V149Z" fill="#757575"/>
<path opacity="0.6" d="M299 149H389V169H299V149Z" fill="#757575"/>
<path opacity="0.6" d="M481 149H572V169H481V149Z" fill="#757575"/>
<path opacity="0.6" d="M663 149H754V169H663V149Z" fill="#757575"/>
<path opacity="0.6" d="M845 149H936V169H845V149Z" fill="#757575"/>
<path opacity="0.6" d="M1028 149H1116V169H1028V149Z" fill="#757575"/>
<path opacity="0.35" d="M208 149H299V169H208V149Z" fill="#757575"/>
<path opacity="0.35" d="M27 149H118V169H27V149Z" fill="#757575"/>
<path opacity="0.35" d="M390 149H481V169H390V149Z" fill="#757575"/>
<path opacity="0.35" d="M572 149H663V169H572V149Z" fill="#757575"/>
<path opacity="0.35" d="M755 149H845V169H755V149Z" fill="#757575"/>
<path opacity="0.35" d="M936 149H1027V169H936V149Z" fill="#757575"/>
<path fill-rule="evenodd" clip-rule="evenodd" d="M208 190L208 129L209 129L209 190L208 190Z" fill="#DDDDDE"/>
<path fill-rule="evenodd" clip-rule="evenodd" d="M117 190L117 129L118 129L118 190L117 190Z" fill="#DDDDDE"/>
<path fill-rule="evenodd" clip-rule="evenodd" d="M299 190L299 129L300 129L300 190L299 190Z" fill="#DDDDDE"/>
<path fill-rule="evenodd" clip-rule="evenodd" d="M390 190L390 129L391 129L391 190L390 190Z" fill="#DDDDDE"/>
<path fill-rule="evenodd" clip-rule="evenodd" d="M481 190L481 129L482 129L482 190L481 190Z" fill="#DDDDDE"/>
<path fill-rule="evenodd" clip-rule="evenodd" d="M572 190L572 129L573 129L573 190L572 190Z" fill="#DDDDDE"/>
<path fill-rule="evenodd" clip-rule="evenodd" d="M663 190L663 129L664 129L664 190L663 190Z" fill="#DDDDDE"/>
<path fill-rule="evenodd" clip-rule="evenodd" d="M1118 120L1118 91L1121 91L1121 120L1118 120Z" fill="#1A1A1A"/>
<path fill-rule="evenodd" clip-rule="evenodd" d="M959 91L959 22L962 22L962 91L959 91Z" fill="#1A1A1A"/>
<path fill-rule="evenodd" clip-rule="evenodd" d="M1123 91L1123 76L1124 76L1124 91L1123 91Z" fill="#4D4D4D"/>
<path fill-rule="evenodd" clip-rule="evenodd" d="M1054 77L1054 67L1055 67L1055 77L1054 77Z" fill="#4D4D4D"/>
<path fill-rule="evenodd" clip-rule="evenodd" d="M754 190L754 129L755 129L755 190L754 190Z" fill="#DDDDDE"/>
<path fill-rule="evenodd" clip-rule="evenodd" d="M845 190L845 129L846 129L846 190L845 190Z" fill="#DDDDDE"/>
<path fill-rule="evenodd" clip-rule="evenodd" d="M1123 120L1123 91L1124 91L1124 120L1123 120Z" fill="#4D4D4D"/>
<path fill-rule="evenodd" clip-rule="evenodd" d="M843 120L843 91L846 91L846 120L843 120Z" fill="#1A1A1A"/>
<path fill-rule="evenodd" clip-rule="evenodd" d="M936 190L936 129L937 129L937 190L936 190Z" fill="#DDDDDE"/>
<path fill-rule="evenodd" clip-rule="evenodd" d="M1027 190L1027 129L1028 129L1028 190L1027 190Z" fill="#DDDDDE"/>
<path fill-rule="evenodd" clip-rule="evenodd" d="M1118 190L1118 129L1119 129L1119 190L1118 190Z" fill="#DDDDDE"/>
<path fill-rule="evenodd" clip-rule="evenodd" d="M486 59L486 91L485 91L485 59L486 59Z" fill="#4D4D4D"/>
<path fill-rule="evenodd" clip-rule="evenodd" d="M1124 92L27 92L27 91L1124 91L1124 92Z" fill="#4D4D4D"/>
<path fill-rule="evenodd" clip-rule="evenodd" d="M1124 77L1054 77L1054 76L1124 76L1124 77Z" fill="#4D4D4D"/>
<path fill-rule="evenodd" clip-rule="evenodd" d="M962 23L848 23L848 20L962 20L962 23Z" fill="#1A1A1A"/>
<path fill-rule="evenodd" clip-rule="evenodd" d="M1121 94L843 94L843 91L1121 91L1121 94Z" fill="#1A1A1A"/>
<path fill-rule="evenodd" clip-rule="evenodd" d="M27 91L27 119L26 119L26 91L27 91Z" fill="#4D4D4D"/>
<g style="mix-blend-mode:multiply">
<path d="M936 129H1118V190H936V129Z" fill="#B779FF" fill-opacity="0.5"/>
</g>
<g style="mix-blend-mode:multiply">
<path d="M27 129H1116V190H27V129Z" fill="#B779FF" fill-opacity="0.5"/>
</g>
<g style="mix-blend-mode:multiply" opacity="0.75">
<path d="M1118 129H1124V190H1118V129Z" fill="#6405D1"/>
</g>
<path d="M747.224 10.7402C746.735 11.2211 746.15 11.6079 745.468 11.9007C744.794 12.1934 744.052 12.3398 743.244 12.3398C742.182 12.3398 741.256 12.1237 740.464 11.6916C739.681 11.2595 739.074 10.6531 738.644 9.87245C738.215 9.08486 738 8.21711 738 7.26921C738 6.25161 738.232 5.33508 738.695 4.5196C739.167 3.70413 739.832 3.08033 740.691 2.6482C741.551 2.21607 742.553 2 743.699 2C745.518 2 746.95 2.56456 747.995 3.69367C749.048 4.81582 749.574 6.34919 749.574 8.29378V8.85834C749.574 11.8205 748.866 13.9847 747.451 15.3508C746.036 16.7099 743.901 17.4069 741.045 17.4417H740.59V15.8108H741.083C743.012 15.7829 744.495 15.3682 745.531 14.5666C746.567 13.7581 747.131 12.4827 747.224 10.7402ZM743.623 10.7402C744.406 10.7402 745.126 10.5416 745.783 10.1443C746.449 9.74699 746.933 9.25562 747.236 8.67015V7.8965C747.236 6.62798 746.904 5.59645 746.238 4.80188C745.573 4.00732 744.73 3.61004 743.711 3.61004C742.684 3.61004 741.858 3.93762 741.235 4.59279C740.611 5.24098 740.3 6.09827 740.3 7.16466C740.3 8.20317 740.599 9.06046 741.197 9.73654C741.803 10.4056 742.612 10.7402 743.623 10.7402Z" fill="black"/>
<path d="M764.332 10.9388C764.332 13.204 763.865 14.8873 762.93 15.9885C761.995 17.0897 760.533 17.6404 758.545 17.6404C756.582 17.6404 755.129 17.1037 754.186 16.0303C753.242 14.95 752.754 13.34 752.72 11.2002V8.61788C752.72 6.38055 753.188 4.71824 754.123 3.63095C755.058 2.54365 756.523 2 758.52 2C760.499 2 761.957 2.52622 762.892 3.57867C763.827 4.62415 764.307 6.24116 764.332 8.42969V10.9388ZM761.995 8.29378C761.995 6.65586 761.717 5.46402 761.161 4.71824C760.605 3.9655 759.724 3.58913 758.52 3.58913C757.324 3.58913 756.452 3.96201 755.904 4.70779C755.357 5.45356 755.075 6.6001 755.058 8.14741V11.242C755.058 12.8869 755.344 14.1032 755.917 14.8907C756.498 15.6714 757.374 16.0617 758.545 16.0617C759.699 16.0617 760.554 15.6923 761.11 14.9535C761.674 14.2147 761.969 13.0507 761.995 11.4616V8.29378Z" fill="black"/>
<path d="M774.352 17.4313V2.2091H779.545C781.146 2.2091 782.561 2.50183 783.791 3.0873C785.02 3.67277 785.968 4.50566 786.634 5.58599C787.307 6.66632 787.649 7.90695 787.657 9.30789V10.2802C787.657 11.716 787.32 12.974 786.646 14.0544C785.981 15.1347 785.025 15.9641 783.778 16.5426C782.54 17.1211 781.095 17.4173 779.444 17.4313H774.352ZM776.778 3.86095V15.7899H779.33C781.2 15.7899 782.653 15.3089 783.69 14.3471C784.734 13.3853 785.256 12.0157 785.256 10.2384V9.34971C785.256 7.62119 784.764 6.27949 783.778 5.32462C782.801 4.36278 781.411 3.87489 779.608 3.86095H776.778Z" fill="black"/>
<path d="M799.408 17.4313C799.273 17.2082 799.164 16.8109 799.079 16.2394C797.993 17.1734 796.696 17.6404 795.188 17.6404C793.84 17.6404 792.732 17.3267 791.865 16.6994C791.005 16.0652 790.576 15.2636 790.576 14.2948C790.576 13.1169 791.115 12.2039 792.193 11.5557C793.28 10.9005 794.804 10.5729 796.767 10.5729H799.042V9.68427C799.042 9.00819 798.797 8.47151 798.309 8.07423C797.82 7.66998 797.1 7.46785 796.148 7.46785C795.314 7.46785 794.615 7.6421 794.051 7.99059C793.486 8.33908 793.204 8.76076 793.204 9.25562H790.854C790.854 8.69106 791.094 8.14741 791.574 7.62467C792.063 7.09496 792.72 6.67677 793.545 6.3701C794.379 6.06343 795.293 5.91009 796.287 5.91009C797.862 5.91009 799.096 6.23767 799.989 6.89284C800.882 7.54103 801.345 8.43666 801.379 9.57972V14.7862C801.379 15.8247 801.539 16.6506 801.859 17.264V17.4313H799.408ZM795.529 15.9571C796.262 15.9571 796.957 15.8003 797.614 15.4867C798.271 15.173 798.747 14.7653 799.042 14.2635V11.9425H797.209C794.345 11.9425 792.913 12.636 792.913 14.023C792.913 14.6294 793.158 15.1033 793.646 15.4449C794.135 15.7864 794.762 15.9571 795.529 15.9571Z" fill="black"/>
<path d="M809.314 14.598L812.498 6.11918H815L809.504 19.1772C808.653 21.0591 807.301 22 805.448 22L805.005 21.9686L804.134 21.8327V20.2645L804.765 20.3063C805.557 20.3063 806.172 20.1739 806.61 19.909C807.057 19.6442 807.423 19.1598 807.709 18.4558L808.227 17.3058L803.35 6.11918H805.903L809.314 14.598Z" fill="black"/>
<path d="M710 1H727V18H710V1Z" fill="#C0A6E6"/>
<path d="M1015.12 0.996094V15H1017.13V0.996094H1015.12Z" fill="black"/>
<path d="M1019.43 4.62891V15H1021.36V9.38477C1021.36 7.66602 1022.47 6.2207 1024.51 6.2207C1026.19 6.2207 1027.05 7.20703 1027.05 8.94531V15H1028.98V8.19336C1028.98 5.88867 1027.52 4.43359 1024.97 4.43359C1022.94 4.43359 1021.93 5.36133 1021.36 6.37695V4.62891H1019.43Z" fill="black"/>
<path d="M1039.53 7.16797C1038.95 5.55664 1037.39 4.43359 1034.84 4.43359C1032.21 4.43359 1030.5 5.61523 1030.5 7.63672C1030.5 9.9707 1032.81 10.2637 1034.83 10.5176C1036.41 10.7129 1037.82 10.8887 1037.82 11.9922C1037.82 12.9297 1036.79 13.5352 1035.34 13.5352C1033.9 13.5352 1032.55 12.9492 1032.06 11.5625L1030.29 12.2266C1031.01 14.1504 1032.96 15.1562 1035.26 15.1562C1037.87 15.1562 1039.74 13.8379 1039.74 11.748C1039.74 9.41406 1037.4 9.16992 1035.39 8.93555C1033.8 8.75 1032.41 8.58398 1032.41 7.48047C1032.41 6.62109 1033.26 6.06445 1034.75 6.06445C1036.34 6.06445 1037.39 6.69922 1037.82 7.8125L1039.53 7.16797Z" fill="black"/>
<path d="M1043.22 0.664062H1041.02V2.91016H1043.22V0.664062ZM1043.09 4.62891H1041.15V15H1043.09V4.62891Z" fill="black"/>
<path d="M1054.94 4.62891H1053.01V6.32812C1052.32 5.0293 1051.12 4.43359 1049.42 4.43359C1046.02 4.43359 1044.5 6.8457 1044.5 9.4043C1044.5 11.9727 1046.03 14.4043 1049.4 14.4043C1051.11 14.4043 1052.32 13.7695 1053.01 12.4512V14.4336C1053.01 16.0059 1051.84 17.0605 1049.78 17.0605C1048.09 17.0605 1046.93 16.3379 1046.47 15L1044.64 15.5762C1045.24 17.4805 1047.08 18.7793 1049.77 18.7793C1052.98 18.7793 1054.94 16.9043 1054.94 14.375V4.62891ZM1049.73 6.16211C1051.75 6.16211 1053.01 7.5 1053.01 9.4043C1053.01 11.3086 1051.75 12.6758 1049.73 12.6758C1047.72 12.6758 1046.43 11.3184 1046.43 9.4043C1046.43 7.5 1047.71 6.16211 1049.73 6.16211Z" fill="black"/>
<path d="M1056.94 0.673828V15H1058.88V9.38477C1058.88 7.66602 1059.99 6.2207 1062.03 6.2207C1063.71 6.2207 1064.57 7.20703 1064.57 8.94531V15H1066.49V8.19336C1066.49 5.88867 1065.04 4.43359 1062.49 4.43359C1060.46 4.43359 1059.44 5.36133 1058.88 6.37695V0.673828H1056.94Z" fill="black"/>
<path d="M1074.33 4.62891H1071.32V1.49414L1069.39 2.02148V4.62891H1067.23V6.39648H1069.39V12.1289C1069.39 13.9844 1070.16 15.1562 1072.54 15.1562C1073.21 15.1562 1073.92 15.0586 1074.64 14.8828L1074.46 13.2715C1073.97 13.3789 1073.51 13.4375 1073.11 13.4375C1071.32 13.4375 1071.32 12.2949 1071.32 11.7773V6.39648H1074.33V4.62891Z" fill="black"/>
<path d="M1084.2 7.16797C1083.62 5.55664 1082.06 4.43359 1079.51 4.43359C1076.88 4.43359 1075.17 5.61523 1075.17 7.63672C1075.17 9.9707 1077.48 10.2637 1079.5 10.5176C1081.08 10.7129 1082.49 10.8887 1082.49 11.9922C1082.49 12.9297 1081.46 13.5352 1080.01 13.5352C1078.57 13.5352 1077.22 12.9492 1076.72 11.5625L1074.96 12.2266C1075.68 14.1504 1077.63 15.1562 1079.93 15.1562C1082.54 15.1562 1084.41 13.8379 1084.41 11.748C1084.41 9.41406 1082.07 9.16992 1080.05 8.93555C1078.47 8.75 1077.08 8.58398 1077.08 7.48047C1077.08 6.62109 1077.93 6.06445 1079.42 6.06445C1081.01 6.06445 1082.06 6.69922 1082.49 7.8125L1084.2 7.16797Z" fill="black"/>
<path d="M1008.28 29.998C1008.28 25.4473 1005.57 22.6738 1001.41 22.6738C997.252 22.6738 994.537 25.4473 994.537 29.998C994.537 34.5488 997.252 37.3223 1001.41 37.3223C1002.5 37.3223 1003.47 37.1367 1004.34 36.7754L1005.76 38.7578L1007.23 37.6934L1005.91 35.8281C1007.42 34.5781 1008.28 32.5664 1008.28 29.998ZM1001.4 35.418C998.512 35.418 996.578 33.4551 996.578 29.998C996.578 26.5508 998.512 24.5781 1001.41 24.5781C1004.3 24.5781 1006.24 26.5508 1006.24 29.998C1006.24 31.834 1005.69 33.25 1004.74 34.1777L1002.88 31.5508L1001.36 32.6348L1003.16 35.1445C1002.63 35.3203 1002.05 35.418 1001.4 35.418Z" fill="black"/>
<path d="M1019.05 37V26.6289H1017.13V32.2148C1017.13 33.9336 1016.01 35.3691 1014.06 35.3691C1012.48 35.3691 1011.63 34.3828 1011.63 32.6445V26.6289H1009.7V33.3965C1009.7 35.7109 1011.17 37.1562 1013.6 37.1562C1015.54 37.1562 1016.55 36.2383 1017.13 35.2129V37H1019.05Z" fill="black"/>
<path d="M1030.49 31.1016C1030.49 28.1914 1028.6 26.4336 1025.71 26.4336C1022.55 26.4336 1020.46 28.5234 1020.46 31.8633C1020.46 35.0273 1022.34 37.1562 1025.64 37.1562C1027.9 37.1562 1029.37 36.1406 1030.33 34.7441L1028.8 33.8457C1028.25 34.7051 1027.33 35.4375 1025.74 35.4375C1023.66 35.4375 1022.49 34.168 1022.39 32.4785H1030.49V31.1016ZM1025.69 28.1523C1027.44 28.1523 1028.5 29.041 1028.56 30.8672H1022.4C1022.64 29.2363 1023.75 28.1523 1025.69 28.1523Z" fill="black"/>
<path d="M1031.91 26.6289V37H1033.85V31.9219C1033.85 29.6367 1034.86 28.3965 1037.13 28.3965C1037.48 28.3965 1037.83 28.4258 1038.21 28.4746L1038.31 26.6289C1037.98 26.5703 1037.61 26.5312 1037.24 26.5312C1035.81 26.5312 1034.51 27.0293 1033.85 28.6211V26.6289H1031.91Z" fill="black"/>
<path d="M1046.65 26.6289L1043.47 34.9492L1040.19 26.6289H1038.07L1042.47 37.0391C1042.01 38.2012 1041.32 38.8555 1040.09 38.8555C1039.63 38.8555 1039.18 38.7773 1038.69 38.6504L1038.36 40.291C1039.03 40.4766 1039.69 40.584 1040.31 40.584C1042.06 40.584 1043.44 39.7148 1044.16 37.9277L1048.73 26.6289H1046.65Z" fill="black"/>
<path d="M1065.33 22.9961L1060.8 33.8848L1056.28 22.9961H1053.37V37H1055.37V25.7207L1059.72 36.0234H1061.89L1066.24 25.7207V37H1068.24V22.9961H1065.33Z" fill="black"/>
<path d="M1075.06 26.4336C1072.49 26.4336 1070.75 27.5664 1070.05 29.3926L1071.83 29.998C1072.33 28.8066 1073.42 28.1523 1075.05 28.1523C1076.59 28.1523 1077.42 28.7285 1077.42 29.6172C1077.42 30.6816 1076.24 30.8184 1074.59 30.9648C1072.44 31.1602 1069.86 31.3359 1069.86 34.0508C1069.86 36.0039 1071.19 37.1562 1073.55 37.1562C1075.25 37.1562 1076.62 36.5605 1077.44 35.3496V37H1079.34V29.793C1079.34 27.7227 1077.81 26.4336 1075.06 26.4336ZM1073.87 35.4375C1072.62 35.4375 1071.78 35.0664 1071.78 34.002C1071.78 32.6934 1073.09 32.6152 1074.71 32.4492C1075.62 32.3516 1076.6 32.2344 1077.42 31.9414V32.8203C1077.42 34.4902 1075.86 35.4375 1073.87 35.4375Z" fill="black"/>
<path d="M1091.1 37V22.6738H1089.17V28.4062C1088.46 27.0586 1087.24 26.4336 1085.54 26.4336C1082.2 26.4336 1080.66 28.8848 1080.66 31.7852C1080.66 34.666 1082.19 37.1562 1085.57 37.1562C1087.27 37.1562 1088.47 36.541 1089.19 35.1348V37H1091.1ZM1085.89 35.4375C1083.84 35.4375 1082.6 34.002 1082.6 31.7852C1082.6 29.5488 1083.85 28.1621 1085.89 28.1621C1087.92 28.1621 1089.17 29.5488 1089.17 31.7852C1089.17 34.002 1087.93 35.4375 1085.89 35.4375Z" fill="black"/>
<path d="M1102.55 31.1016C1102.55 28.1914 1100.66 26.4336 1097.77 26.4336C1094.61 26.4336 1092.52 28.5234 1092.52 31.8633C1092.52 35.0273 1094.4 37.1562 1097.7 37.1562C1099.96 37.1562 1101.43 36.1406 1102.38 34.7441L1100.86 33.8457C1100.3 34.7051 1099.39 35.4375 1097.79 35.4375C1095.71 35.4375 1094.55 34.168 1094.45 32.4785H1102.55V31.1016ZM1097.75 28.1523C1099.49 28.1523 1100.56 29.041 1100.62 30.8672H1094.46C1094.7 29.2363 1095.81 28.1523 1097.75 28.1523Z" fill="black"/>
<path d="M707.65 27.1973V37H709.387V33.4863H711.458L713.174 37H715.115L713.27 33.2539C714.438 32.7686 715.177 31.5723 715.177 30.2188C715.177 28.5645 714.083 27.1973 712.155 27.1973H707.65ZM709.387 28.8379H711.854C712.791 28.8379 713.42 29.3916 713.42 30.2939C713.42 31.2236 712.743 31.8662 711.738 31.8662H709.387V28.8379Z" fill="black"/>
<path d="M723.339 32.8984C723.339 30.8271 722.102 29.5215 720.078 29.5215C717.932 29.5215 716.592 30.998 716.592 33.3633C716.592 35.6123 717.795 37.1094 720.044 37.1094C721.664 37.1094 722.71 36.3232 723.236 35.2363L721.767 34.7168C721.493 35.2295 721.015 35.6943 720.099 35.6943C718.923 35.6943 718.335 34.8945 718.28 33.8965H723.339V32.8984ZM720.051 30.9365C720.987 30.9365 721.609 31.4424 721.644 32.6455H718.287C718.403 31.6406 718.991 30.9365 720.051 30.9365Z" fill="black"/>
<path d="M729.095 29.6582H727.338V27.4912L725.656 27.9629V29.6582H724.316V31.1553H725.656V35.0723C725.656 36.6514 726.531 37.1094 727.837 37.1094C728.288 37.1094 728.78 37.0479 729.225 36.9385L729.149 35.5576C728.855 35.6055 728.582 35.6328 728.363 35.6328C727.338 35.6328 727.338 34.9971 727.338 34.6348V31.1553H729.095V29.6582Z" fill="black"/>
<path d="M737.147 32.8984C737.147 30.8271 735.91 29.5215 733.887 29.5215C731.74 29.5215 730.4 30.998 730.4 33.3633C730.4 35.6123 731.604 37.1094 733.853 37.1094C735.473 37.1094 736.519 36.3232 737.045 35.2363L735.575 34.7168C735.302 35.2295 734.823 35.6943 733.907 35.6943C732.731 35.6943 732.144 34.8945 732.089 33.8965H737.147V32.8984ZM733.859 30.9365C734.796 30.9365 735.418 31.4424 735.452 32.6455H732.096C732.212 31.6406 732.8 30.9365 733.859 30.9365Z" fill="black"/>
<path d="M738.973 29.6582V37H740.654V32.8369C740.654 31.8115 741.276 31.0254 742.356 31.0254C743.279 31.0254 743.703 31.6064 743.703 32.5908V37H745.385V32.0439C745.385 30.4785 744.51 29.5215 742.91 29.5215C741.7 29.5215 741.044 30.0684 740.654 30.7861V29.6582H738.973Z" fill="black"/>
<path d="M751.544 29.6582H749.787V27.4912L748.105 27.9629V29.6582H746.766V31.1553H748.105V35.0723C748.105 36.6514 748.98 37.1094 750.286 37.1094C750.737 37.1094 751.229 37.0479 751.674 36.9385L751.599 35.5576C751.305 35.6055 751.031 35.6328 750.812 35.6328C749.787 35.6328 749.787 34.9971 749.787 34.6348V31.1553H751.544V29.6582Z" fill="black"/>
<path d="M755.222 26.9102H753.396V28.6055H755.222V26.9102ZM755.146 29.6582H753.465V37H755.146V29.6582Z" fill="black"/>
<path d="M760.444 29.5215C758.312 29.5215 756.965 30.9912 756.965 33.3154C756.965 35.6396 758.312 37.1094 760.444 37.1094C762.584 37.1094 763.931 35.6396 763.931 33.3154C763.931 30.9912 762.584 29.5215 760.444 29.5215ZM760.444 30.957C761.586 30.957 762.249 31.7842 762.249 33.3154C762.249 34.8535 761.586 35.6738 760.444 35.6738C759.31 35.6738 758.646 34.8535 758.646 33.3154C758.646 31.7842 759.31 30.957 760.444 30.957Z" fill="black"/>
<path d="M765.756 29.6582V37H767.438V32.8369C767.438 31.8115 768.06 31.0254 769.14 31.0254C770.062 31.0254 770.486 31.6064 770.486 32.5908V37H772.168V32.0439C772.168 30.4785 771.293 29.5215 769.693 29.5215C768.483 29.5215 767.827 30.0684 767.438 30.7861V29.6582H765.756Z" fill="black"/>
<path d="M777.773 29.6582V39.6729H779.455V35.7695C779.872 36.5693 780.576 37 781.649 37C783.728 37 784.801 35.4346 784.801 33.2607C784.801 31.0869 783.728 29.5215 781.656 29.5215C780.569 29.5215 779.886 29.959 779.455 30.7725V29.6582H777.773ZM781.287 35.5645C780.132 35.5645 779.455 34.6963 779.455 33.2607C779.455 31.8252 780.132 30.957 781.287 30.957C782.442 30.957 783.119 31.8252 783.119 33.2607C783.119 34.6963 782.442 35.5645 781.287 35.5645Z" fill="black"/>
<path d="M792.901 32.8984C792.901 30.8271 791.664 29.5215 789.641 29.5215C787.494 29.5215 786.154 30.998 786.154 33.3633C786.154 35.6123 787.357 37.1094 789.606 37.1094C791.227 37.1094 792.272 36.3232 792.799 35.2363L791.329 34.7168C791.056 35.2295 790.577 35.6943 789.661 35.6943C788.485 35.6943 787.897 34.8945 787.843 33.8965H792.901V32.8984ZM789.613 30.9365C790.55 30.9365 791.172 31.4424 791.206 32.6455H787.85C787.966 31.6406 788.554 30.9365 789.613 30.9365Z" fill="black"/>
<path d="M794.727 29.6582V37H796.408V33.418C796.408 31.9072 797.167 31.21 798.404 31.21C798.63 31.21 798.849 31.2305 799.088 31.2646L799.136 29.6445C798.924 29.6035 798.732 29.583 798.521 29.583C797.604 29.583 796.798 29.918 796.408 31.0049V29.6582H794.727Z" fill="black"/>
<path d="M802.39 26.9102H800.564V28.6055H802.39V26.9102ZM802.314 29.6582H800.633V37H802.314V29.6582Z" fill="black"/>
<path d="M807.612 29.5215C805.479 29.5215 804.133 30.9912 804.133 33.3154C804.133 35.6396 805.479 37.1094 807.612 37.1094C809.752 37.1094 811.099 35.6396 811.099 33.3154C811.099 30.9912 809.752 29.5215 807.612 29.5215ZM807.612 30.957C808.754 30.957 809.417 31.7842 809.417 33.3154C809.417 34.8535 808.754 35.6738 807.612 35.6738C806.478 35.6738 805.814 34.8535 805.814 33.3154C805.814 31.7842 806.478 30.957 807.612 30.957Z" fill="black"/>
<path d="M819.473 37V26.9717H817.791V30.793C817.374 29.9316 816.615 29.5215 815.556 29.5215C813.519 29.5215 812.445 31.0732 812.445 33.3223C812.445 35.5508 813.498 37.1094 815.583 37.1094C816.615 37.1094 817.388 36.7266 817.818 35.7764V37H819.473ZM815.966 35.6738C814.804 35.6738 814.127 34.8057 814.127 33.3154C814.127 31.8115 814.811 30.957 815.966 30.957C817.114 30.957 817.791 31.8115 817.791 33.3154C817.791 34.8057 817.121 35.6738 815.966 35.6738Z" fill="black"/>
<path d="M5.39746 205.197V212.218C5.39746 213.435 4.86426 214.296 3.51758 214.296C2.3623 214.296 1.50098 213.667 1.49414 211.849L0.523438 211.944C0.530273 214.228 1.80859 215.226 3.52441 215.226C5.36328 215.226 6.36816 214.084 6.36816 212.238V205.197H5.39746Z" fill="#4D4D4D"/>
<path d="M11.748 207.699C10.1211 207.699 9.05469 208.458 8.65137 209.675L9.54688 209.941C9.84766 209.053 10.5859 208.547 11.7344 208.547C12.876 208.547 13.457 209.039 13.457 209.764C13.457 210.659 12.5684 210.796 11.4336 210.946C10.1006 211.117 8.52148 211.302 8.52148 213.065C8.52148 214.337 9.34863 215.109 10.8252 215.109C11.8438 215.109 12.8691 214.754 13.4639 213.694V215H14.3936V209.873C14.3936 208.485 13.4092 207.699 11.748 207.699ZM11.0029 214.262C10.0596 214.262 9.45801 213.893 9.45801 213.038C9.45801 211.965 10.4219 211.842 11.4814 211.691C12.2334 211.582 12.9854 211.459 13.457 211.138V212.184C13.457 213.496 12.3701 214.262 11.0029 214.262Z" fill="#4D4D4D"/>
<path d="M16.8887 207.836V215H17.8252V210.939C17.8252 209.606 18.6455 208.574 20.0332 208.574C21.1885 208.574 21.7559 209.292 21.7559 210.529V215H22.6924V210.188C22.6924 208.663 21.8379 207.699 20.2451 207.699C19.042 207.699 18.2559 208.253 17.8252 209.196V207.836H16.8887Z" fill="#4D4D4D"/>
<path d="M30.7861 215V207.836H29.8496V211.869C29.8496 213.202 29.0293 214.234 27.71 214.234C26.623 214.234 26.0557 213.517 26.0557 212.272V207.836H25.1191V212.621C25.1191 214.159 25.9873 215.109 27.4912 215.109C28.6328 215.109 29.4189 214.556 29.8496 213.612V215H30.7861Z" fill="#4D4D4D"/>
<path d="M36.0977 207.699C34.4707 207.699 33.4043 208.458 33.001 209.675L33.8965 209.941C34.1973 209.053 34.9355 208.547 36.084 208.547C37.2256 208.547 37.8066 209.039 37.8066 209.764C37.8066 210.659 36.918 210.796 35.7832 210.946C34.4502 211.117 32.8711 211.302 32.8711 213.065C32.8711 214.337 33.6982 215.109 35.1748 215.109C36.1934 215.109 37.2188 214.754 37.8135 213.694V215H38.7432V209.873C38.7432 208.485 37.7588 207.699 36.0977 207.699ZM35.3525 214.262C34.4092 214.262 33.8076 213.893 33.8076 213.038C33.8076 211.965 34.7715 211.842 35.8311 211.691C36.583 211.582 37.335 211.459 37.8066 211.138V212.184C37.8066 213.496 36.7197 214.262 35.3525 214.262Z" fill="#4D4D4D"/>
<path d="M41.2383 207.836V215H42.1748V211.363C42.1748 209.654 42.9883 208.677 44.4443 208.677C44.6494 208.677 44.8408 208.697 45.0527 208.725L45.1074 207.829C44.9023 207.788 44.6973 207.768 44.499 207.768C43.4463 207.768 42.5508 208.253 42.1748 209.422V207.836H41.2383Z" fill="#4D4D4D"/>
<path d="M51.6016 207.836L49.4209 213.975L47.1172 207.836H46.0918L48.9355 215.096C48.6279 216.101 48.1426 216.641 47.2539 216.641C46.9463 216.641 46.6523 216.572 46.3516 216.483L46.167 217.29C46.5566 217.413 46.9805 217.488 47.3633 217.488C48.4502 217.488 49.2637 216.907 49.7012 215.725L52.6064 207.836H51.6016Z" fill="#4D4D4D"/>
<path d="M94.0908 205.197H88.0684V215H89.0391V210.563H93.6328V209.634H89.0391V206.127H94.0908V205.197Z" fill="#4D4D4D"/>
<path d="M101.378 210.837C101.378 208.834 100.202 207.699 98.4385 207.699C96.4355 207.699 95.2188 209.148 95.2188 211.459C95.2188 213.612 96.2646 215.109 98.3701 215.109C99.8672 215.109 100.811 214.337 101.289 213.257L100.517 212.888C100.195 213.681 99.5254 214.262 98.418 214.262C96.9209 214.262 96.1826 213.195 96.1484 211.698H101.378V210.837ZM98.4111 208.547C99.6279 208.547 100.428 209.265 100.428 210.762V210.898H96.1621C96.2715 209.545 97.0166 208.547 98.4111 208.547Z" fill="#4D4D4D"/>
<path d="M103.463 215H104.393V213.517C104.871 214.692 105.753 215.109 106.826 215.109C108.863 215.109 109.882 213.599 109.882 211.404C109.882 209.203 108.856 207.699 106.84 207.699C105.76 207.699 104.857 208.137 104.399 209.265V204.972H103.463V215ZM106.676 214.262C105.254 214.262 104.399 213.195 104.399 211.404C104.399 209.606 105.268 208.547 106.676 208.547C108.091 208.547 108.938 209.613 108.938 211.404C108.938 213.188 108.098 214.262 106.676 214.262Z" fill="#4D4D4D"/>
<path d="M111.953 207.836V215H112.89V211.363C112.89 209.654 113.703 208.677 115.159 208.677C115.364 208.677 115.556 208.697 115.768 208.725L115.822 207.829C115.617 207.788 115.412 207.768 115.214 207.768C114.161 207.768 113.266 208.253 112.89 209.422V207.836H111.953Z" fill="#4D4D4D"/>
<path d="M123.062 215V207.836H122.125V211.869C122.125 213.202 121.305 214.234 119.985 214.234C118.898 214.234 118.331 213.517 118.331 212.272V207.836H117.395V212.621C117.395 214.159 118.263 215.109 119.767 215.109C120.908 215.109 121.694 214.556 122.125 213.612V215H123.062Z" fill="#4D4D4D"/>
<path d="M128.373 207.699C126.746 207.699 125.68 208.458 125.276 209.675L126.172 209.941C126.473 209.053 127.211 208.547 128.359 208.547C129.501 208.547 130.082 209.039 130.082 209.764C130.082 210.659 129.193 210.796 128.059 210.946C126.726 211.117 125.146 211.302 125.146 213.065C125.146 214.337 125.974 215.109 127.45 215.109C128.469 215.109 129.494 214.754 130.089 213.694V215H131.019V209.873C131.019 208.485 130.034 207.699 128.373 207.699ZM127.628 214.262C126.685 214.262 126.083 213.893 126.083 213.038C126.083 211.965 127.047 211.842 128.106 211.691C128.858 211.582 129.61 211.459 130.082 211.138V212.184C130.082 213.496 128.995 214.262 127.628 214.262Z" fill="#4D4D4D"/>
<path d="M133.514 207.836V215H134.45V211.363C134.45 209.654 135.264 208.677 136.72 208.677C136.925 208.677 137.116 208.697 137.328 208.725L137.383 207.829C137.178 207.788 136.973 207.768 136.774 207.768C135.722 207.768 134.826 208.253 134.45 209.422V207.836H133.514Z" fill="#4D4D4D"/>
<path d="M143.877 207.836L141.696 213.975L139.393 207.836H138.367L141.211 215.096C140.903 216.101 140.418 216.641 139.529 216.641C139.222 216.641 138.928 216.572 138.627 216.483L138.442 217.29C138.832 217.413 139.256 217.488 139.639 217.488C140.726 217.488 141.539 216.907 141.977 215.725L144.882 207.836H143.877Z" fill="#4D4D4D"/>
<path d="M196.207 205.197L192.926 213.072L189.638 205.197H188.236V215H189.207V206.599L192.365 214.077H193.479L196.645 206.599V215H197.608V205.197H196.207Z" fill="#4D4D4D"/>
<path d="M203.057 207.699C201.43 207.699 200.363 208.458 199.96 209.675L200.855 209.941C201.156 209.053 201.895 208.547 203.043 208.547C204.185 208.547 204.766 209.039 204.766 209.764C204.766 210.659 203.877 210.796 202.742 210.946C201.409 211.117 199.83 211.302 199.83 213.065C199.83 214.337 200.657 215.109 202.134 215.109C203.152 215.109 204.178 214.754 204.772 213.694V215H205.702V209.873C205.702 208.485 204.718 207.699 203.057 207.699ZM202.312 214.262C201.368 214.262 200.767 213.893 200.767 213.038C200.767 211.965 201.73 211.842 202.79 211.691C203.542 211.582 204.294 211.459 204.766 211.138V212.184C204.766 213.496 203.679 214.262 202.312 214.262Z" fill="#4D4D4D"/>
<path d="M208.197 207.836V215H209.134V211.363C209.134 209.654 209.947 208.677 211.403 208.677C211.608 208.677 211.8 208.697 212.012 208.725L212.066 207.829C211.861 207.788 211.656 207.768 211.458 207.768C210.405 207.768 209.51 208.253 209.134 209.422V207.836H208.197Z" fill="#4D4D4D"/>
<path d="M218.246 210.058L219.155 209.859C218.827 208.567 217.884 207.699 216.305 207.699C214.261 207.699 213.092 209.121 213.092 211.418C213.092 213.701 214.247 215.109 216.264 215.109C217.856 215.109 218.827 214.234 219.155 212.901L218.246 212.703C218 213.715 217.323 214.262 216.264 214.262C214.801 214.262 214.028 213.216 214.028 211.432C214.028 209.6 214.842 208.547 216.284 208.547C217.316 208.547 218 209.087 218.246 210.058Z" fill="#4D4D4D"/>
<path d="M221.158 204.972V215H222.095V210.939C222.095 209.606 222.915 208.574 224.303 208.574C225.458 208.574 226.025 209.292 226.025 210.529V215H226.962V210.188C226.962 208.663 226.107 207.699 224.515 207.699C223.312 207.699 222.525 208.253 222.095 209.196V204.972H221.158Z" fill="#4D4D4D"/>
<path d="M283.639 215H284.678L285.771 212.129H290.229L291.322 215H292.361L288.595 205.197H287.398L283.639 215ZM286.113 211.199L288 206.243L289.88 211.199H286.113Z" fill="#4D4D4D"/>
<path d="M294.166 207.836V217.625H295.103V213.435C295.581 214.528 296.408 215 297.529 215C299.56 215 300.585 213.496 300.585 211.35C300.585 209.203 299.56 207.699 297.543 207.699C296.422 207.699 295.574 208.164 295.103 209.258V207.836H294.166ZM297.379 214.152C295.964 214.152 295.103 213.086 295.103 211.35C295.103 209.613 295.964 208.547 297.379 208.547C298.801 208.547 299.642 209.62 299.642 211.35C299.642 213.079 298.801 214.152 297.379 214.152Z" fill="#4D4D4D"/>
<path d="M302.656 207.836V215H303.593V211.363C303.593 209.654 304.406 208.677 305.862 208.677C306.067 208.677 306.259 208.697 306.471 208.725L306.525 207.829C306.32 207.788 306.115 207.768 305.917 207.768C304.864 207.768 303.969 208.253 303.593 209.422V207.836H302.656Z" fill="#4D4D4D"/>
<path d="M309.171 205.17H308.098V206.551H309.171V205.17ZM309.103 207.836H308.166V215H309.103V207.836Z" fill="#4D4D4D"/>
<path d="M311.666 204.972V215H312.603V204.972H311.666Z" fill="#4D4D4D"/>
<path d="M385.152 205.197L381.871 213.072L378.583 205.197H377.182V215H378.152V206.599L381.311 214.077H382.425L385.59 206.599V215H386.554V205.197H385.152Z" fill="#4D4D4D"/>
<path d="M392.002 207.699C390.375 207.699 389.309 208.458 388.905 209.675L389.801 209.941C390.102 209.053 390.84 208.547 391.988 208.547C393.13 208.547 393.711 209.039 393.711 209.764C393.711 210.659 392.822 210.796 391.688 210.946C390.354 211.117 388.775 211.302 388.775 213.065C388.775 214.337 389.603 215.109 391.079 215.109C392.098 215.109 393.123 214.754 393.718 213.694V215H394.647V209.873C394.647 208.485 393.663 207.699 392.002 207.699ZM391.257 214.262C390.313 214.262 389.712 213.893 389.712 213.038C389.712 211.965 390.676 211.842 391.735 211.691C392.487 211.582 393.239 211.459 393.711 211.138V212.184C393.711 213.496 392.624 214.262 391.257 214.262Z" fill="#4D4D4D"/>
<path d="M401.764 207.836L399.583 213.975L397.279 207.836H396.254L399.098 215.096C398.79 216.101 398.305 216.641 397.416 216.641C397.108 216.641 396.814 216.572 396.514 216.483L396.329 217.29C396.719 217.413 397.143 217.488 397.525 217.488C398.612 217.488 399.426 216.907 399.863 215.725L402.769 207.836H401.764Z" fill="#4D4D4D"/>
<path d="M469.959 205.197V212.218C469.959 213.435 469.426 214.296 468.079 214.296C466.924 214.296 466.062 213.667 466.056 211.849L465.085 211.944C465.092 214.228 466.37 215.226 468.086 215.226C469.925 215.226 470.93 214.084 470.93 212.238V205.197H469.959Z" fill="#4D4D4D"/>
<path d="M479.16 215V207.836H478.224V211.869C478.224 213.202 477.403 214.234 476.084 214.234C474.997 214.234 474.43 213.517 474.43 212.272V207.836H473.493V212.621C473.493 214.159 474.361 215.109 475.865 215.109C477.007 215.109 477.793 214.556 478.224 213.612V215H479.16Z" fill="#4D4D4D"/>
<path d="M481.724 207.836V215H482.66V210.939C482.66 209.606 483.48 208.574 484.868 208.574C486.023 208.574 486.591 209.292 486.591 210.529V215H487.527V210.188C487.527 208.663 486.673 207.699 485.08 207.699C483.877 207.699 483.091 208.253 482.66 209.196V207.836H481.724Z" fill="#4D4D4D"/>
<path d="M495.703 210.837C495.703 208.834 494.527 207.699 492.764 207.699C490.761 207.699 489.544 209.148 489.544 211.459C489.544 213.612 490.59 215.109 492.695 215.109C494.192 215.109 495.136 214.337 495.614 213.257L494.842 212.888C494.521 213.681 493.851 214.262 492.743 214.262C491.246 214.262 490.508 213.195 490.474 211.698H495.703V210.837ZM492.736 208.547C493.953 208.547 494.753 209.265 494.753 210.762V210.898H490.487C490.597 209.545 491.342 208.547 492.736 208.547Z" fill="#4D4D4D"/>
<path d="M563.488 205.197V212.218C563.488 213.435 562.955 214.296 561.608 214.296C560.453 214.296 559.592 213.667 559.585 211.849L558.614 211.944C558.621 214.228 559.899 215.226 561.615 215.226C563.454 215.226 564.459 214.084 564.459 212.238V205.197H563.488Z" fill="#4D4D4D"/>
<path d="M572.689 215V207.836H571.753V211.869C571.753 213.202 570.933 214.234 569.613 214.234C568.526 214.234 567.959 213.517 567.959 212.272V207.836H567.022V212.621C567.022 214.159 567.891 215.109 569.395 215.109C570.536 215.109 571.322 214.556 571.753 213.612V215H572.689Z" fill="#4D4D4D"/>
<path d="M575.253 204.972V215H576.189V204.972H575.253Z" fill="#4D4D4D"/>
<path d="M583.511 207.836L581.33 213.975L579.026 207.836H578.001L580.845 215.096C580.537 216.101 580.052 216.641 579.163 216.641C578.855 216.641 578.562 216.572 578.261 216.483L578.076 217.29C578.466 217.413 578.89 217.488 579.272 217.488C580.359 217.488 581.173 216.907 581.61 215.725L584.516 207.836H583.511Z" fill="#4D4D4D"/>
<path d="M641.497 215H642.536L643.63 212.129H648.087L649.181 215H650.22L646.453 205.197H645.257L641.497 215ZM643.972 211.199L645.858 206.243L647.738 211.199H643.972Z" fill="#4D4D4D"/>
<path d="M657.486 215V207.836H656.55V211.869C656.55 213.202 655.729 214.234 654.41 214.234C653.323 214.234 652.756 213.517 652.756 212.272V207.836H651.819V212.621C651.819 214.159 652.688 215.109 654.191 215.109C655.333 215.109 656.119 214.556 656.55 213.612V215H657.486Z" fill="#4D4D4D"/>
<path d="M665.99 207.836H665.047V209.203C664.589 208.096 663.687 207.699 662.62 207.699C660.583 207.699 659.571 209.162 659.571 211.097C659.571 213.059 660.604 214.515 662.613 214.515C663.714 214.515 664.609 214.077 665.047 212.983V214.788C665.047 216.012 664.22 216.777 662.832 216.777C661.656 216.777 660.877 216.224 660.597 215.28L659.701 215.533C660.063 216.771 661.185 217.625 662.825 217.625C664.746 217.625 665.99 216.463 665.99 214.768V207.836ZM662.777 208.547C664.192 208.547 665.047 209.565 665.047 211.104C665.047 212.648 664.192 213.674 662.777 213.674C661.369 213.674 660.508 212.648 660.508 211.104C660.508 209.572 661.355 208.547 662.777 208.547Z" fill="#4D4D4D"/>
<path d="M674.07 215V207.836H673.134V211.869C673.134 213.202 672.313 214.234 670.994 214.234C669.907 214.234 669.34 213.517 669.34 212.272V207.836H668.403V212.621C668.403 214.159 669.271 215.109 670.775 215.109C671.917 215.109 672.703 214.556 673.134 213.612V215H674.07Z" fill="#4D4D4D"/>
<path d="M681.679 209.572C681.398 208.472 680.517 207.699 678.938 207.699C677.358 207.699 676.299 208.479 676.299 209.812C676.299 211.288 677.618 211.534 678.835 211.753C679.895 211.944 680.886 212.108 680.886 213.038C680.886 213.79 680.236 214.31 679.17 214.31C678.158 214.31 677.304 213.838 677.037 212.765L676.155 213.024C676.497 214.371 677.687 215.109 679.156 215.109C680.763 215.109 681.815 214.228 681.815 212.908C681.815 211.418 680.476 211.199 679.259 211.001C678.199 210.823 677.229 210.659 677.229 209.723C677.229 208.984 677.83 208.506 678.903 208.506C679.949 208.506 680.585 208.971 680.838 209.825L681.679 209.572Z" fill="#4D4D4D"/>
<path d="M687.195 207.836H685.309V205.607L684.372 205.854V207.836H682.957V208.697H684.372V213.298C684.372 213.79 684.372 215.109 686.129 215.109C686.532 215.109 686.97 215.041 687.387 214.925L687.291 214.139C686.983 214.221 686.689 214.269 686.423 214.269C685.479 214.269 685.309 213.715 685.309 213.1V208.697H687.195V207.836Z" fill="#4D4D4D"/>
<path d="M725.974 207.713C725.748 206.072 724.572 204.979 722.508 204.979C720.553 204.979 719.186 205.963 719.186 207.761C719.186 209.75 720.86 210.105 722.439 210.447C723.841 210.755 725.167 211.049 725.167 212.457C725.167 213.619 724.278 214.351 722.891 214.351C721.353 214.351 720.231 213.469 720.047 212.02L719.076 212.19C719.274 213.988 720.819 215.226 722.884 215.226C724.88 215.226 726.151 214.05 726.151 212.307C726.151 210.263 724.408 209.941 722.856 209.613C721.469 209.319 720.17 209.032 720.17 207.645C720.17 206.469 721.106 205.847 722.446 205.847C723.991 205.847 724.859 206.66 725.01 207.884L725.974 207.713Z" fill="#4D4D4D"/>
<path d="M734.054 210.837C734.054 208.834 732.878 207.699 731.114 207.699C729.111 207.699 727.895 209.148 727.895 211.459C727.895 213.612 728.94 215.109 731.046 215.109C732.543 215.109 733.486 214.337 733.965 213.257L733.192 212.888C732.871 213.681 732.201 214.262 731.094 214.262C729.597 214.262 728.858 213.195 728.824 211.698H734.054V210.837ZM731.087 208.547C732.304 208.547 733.104 209.265 733.104 210.762V210.898H728.838C728.947 209.545 729.692 208.547 731.087 208.547Z" fill="#4D4D4D"/>
<path d="M736.139 207.836V217.625H737.075V213.435C737.554 214.528 738.381 215 739.502 215C741.532 215 742.558 213.496 742.558 211.35C742.558 209.203 741.532 207.699 739.516 207.699C738.395 207.699 737.547 208.164 737.075 209.258V207.836H736.139ZM739.352 214.152C737.937 214.152 737.075 213.086 737.075 211.35C737.075 209.613 737.937 208.547 739.352 208.547C740.773 208.547 741.614 209.62 741.614 211.35C741.614 213.079 740.773 214.152 739.352 214.152Z" fill="#4D4D4D"/>
<path d="M747.931 207.836H746.044V205.607L745.107 205.854V207.836H743.692V208.697H745.107V213.298C745.107 213.79 745.107 215.109 746.864 215.109C747.268 215.109 747.705 215.041 748.122 214.925L748.026 214.139C747.719 214.221 747.425 214.269 747.158 214.269C746.215 214.269 746.044 213.715 746.044 213.1V208.697H747.931V207.836Z" fill="#4D4D4D"/>
<path d="M755.587 210.837C755.587 208.834 754.411 207.699 752.647 207.699C750.645 207.699 749.428 209.148 749.428 211.459C749.428 213.612 750.474 215.109 752.579 215.109C754.076 215.109 755.02 214.337 755.498 213.257L754.726 212.888C754.404 213.681 753.734 214.262 752.627 214.262C751.13 214.262 750.392 213.195 750.357 211.698H755.587V210.837ZM752.62 208.547C753.837 208.547 754.637 209.265 754.637 210.762V210.898H750.371C750.48 209.545 751.226 208.547 752.62 208.547Z" fill="#4D4D4D"/>
<path d="M757.672 207.836V215H758.608V210.878C758.608 209.524 759.381 208.574 760.666 208.574C761.76 208.574 762.307 209.265 762.307 210.543V215H763.25V210.878C763.25 209.531 764.009 208.574 765.287 208.574C766.374 208.574 766.948 209.258 766.948 210.543V215H767.885V210.133C767.885 208.608 767.051 207.699 765.499 207.699C764.221 207.699 763.407 208.321 762.997 209.381C762.744 208.28 762.04 207.699 760.885 207.699C759.777 207.699 759.012 208.226 758.608 209.169V207.836H757.672Z" fill="#4D4D4D"/>
<path d="M770.373 215H771.303V213.517C771.781 214.692 772.663 215.109 773.736 215.109C775.773 215.109 776.792 213.599 776.792 211.404C776.792 209.203 775.767 207.699 773.75 207.699C772.67 207.699 771.768 208.137 771.31 209.265V204.972H770.373V215ZM773.586 214.262C772.164 214.262 771.31 213.195 771.31 211.404C771.31 209.606 772.178 208.547 773.586 208.547C775.001 208.547 775.849 209.613 775.849 211.404C775.849 213.188 775.008 214.262 773.586 214.262Z" fill="#4D4D4D"/>
<path d="M784.544 210.837C784.544 208.834 783.368 207.699 781.604 207.699C779.602 207.699 778.385 209.148 778.385 211.459C778.385 213.612 779.431 215.109 781.536 215.109C783.033 215.109 783.977 214.337 784.455 213.257L783.683 212.888C783.361 213.681 782.691 214.262 781.584 214.262C780.087 214.262 779.349 213.195 779.314 211.698H784.544V210.837ZM781.577 208.547C782.794 208.547 783.594 209.265 783.594 210.762V210.898H779.328C779.438 209.545 780.183 208.547 781.577 208.547Z" fill="#4D4D4D"/>
<path d="M786.629 207.836V215H787.565V211.363C787.565 209.654 788.379 208.677 789.835 208.677C790.04 208.677 790.231 208.697 790.443 208.725L790.498 207.829C790.293 207.788 790.088 207.768 789.89 207.768C788.837 207.768 787.941 208.253 787.565 209.422V207.836H786.629Z" fill="#4D4D4D"/>
<path d="M823.145 204.972C820.499 204.972 818.893 206.872 818.893 210.099C818.893 213.325 820.499 215.226 823.145 215.226C825.79 215.226 827.403 213.325 827.403 210.099C827.403 206.872 825.79 204.972 823.145 204.972ZM823.145 205.901C825.161 205.901 826.405 207.439 826.405 210.099C826.405 212.758 825.161 214.296 823.145 214.296C821.128 214.296 819.884 212.758 819.884 210.099C819.884 207.439 821.128 205.901 823.145 205.901Z" fill="#4D4D4D"/>
<path d="M834.232 210.058L835.142 209.859C834.813 208.567 833.87 207.699 832.291 207.699C830.247 207.699 829.078 209.121 829.078 211.418C829.078 213.701 830.233 215.109 832.25 215.109C833.843 215.109 834.813 214.234 835.142 212.901L834.232 212.703C833.986 213.715 833.31 214.262 832.25 214.262C830.787 214.262 830.015 213.216 830.015 211.432C830.015 209.6 830.828 208.547 832.271 208.547C833.303 208.547 833.986 209.087 834.232 210.058Z" fill="#4D4D4D"/>
<path d="M840.446 207.836H838.56V205.607L837.623 205.854V207.836H836.208V208.697H837.623V213.298C837.623 213.79 837.623 215.109 839.38 215.109C839.783 215.109 840.221 215.041 840.638 214.925L840.542 214.139C840.234 214.221 839.94 214.269 839.674 214.269C838.73 214.269 838.56 213.715 838.56 213.1V208.697H840.446V207.836Z" fill="#4D4D4D"/>
<path d="M845.17 207.699C843.181 207.699 841.943 209.101 841.943 211.404C841.943 213.715 843.181 215.109 845.17 215.109C847.159 215.109 848.403 213.715 848.403 211.404C848.403 209.101 847.159 207.699 845.17 207.699ZM845.17 208.547C846.605 208.547 847.467 209.572 847.467 211.404C847.467 213.243 846.605 214.262 845.17 214.262C843.741 214.262 842.88 213.243 842.88 211.404C842.88 209.572 843.741 208.547 845.17 208.547Z" fill="#4D4D4D"/>
<path d="M850.488 215H851.418V213.517C851.896 214.692 852.778 215.109 853.852 215.109C855.889 215.109 856.907 213.599 856.907 211.404C856.907 209.203 855.882 207.699 853.865 207.699C852.785 207.699 851.883 208.137 851.425 209.265V204.972H850.488V215ZM853.701 214.262C852.279 214.262 851.425 213.195 851.425 211.404C851.425 209.606 852.293 208.547 853.701 208.547C855.116 208.547 855.964 209.613 855.964 211.404C855.964 213.188 855.123 214.262 853.701 214.262Z" fill="#4D4D4D"/>
<path d="M864.659 210.837C864.659 208.834 863.483 207.699 861.72 207.699C859.717 207.699 858.5 209.148 858.5 211.459C858.5 213.612 859.546 215.109 861.651 215.109C863.148 215.109 864.092 214.337 864.57 213.257L863.798 212.888C863.477 213.681 862.807 214.262 861.699 214.262C860.202 214.262 859.464 213.195 859.43 211.698H864.659V210.837ZM861.692 208.547C862.909 208.547 863.709 209.265 863.709 210.762V210.898H859.443C859.553 209.545 860.298 208.547 861.692 208.547Z" fill="#4D4D4D"/>
<path d="M866.744 207.836V215H867.681V211.363C867.681 209.654 868.494 208.677 869.95 208.677C870.155 208.677 870.347 208.697 870.559 208.725L870.613 207.829C870.408 207.788 870.203 207.768 870.005 207.768C868.952 207.768 868.057 208.253 867.681 209.422V207.836H866.744Z" fill="#4D4D4D"/>
<path d="M909.873 205.197V213.503L904.773 205.197H903.618V215H904.589V206.715L909.688 215H910.844V205.197H909.873Z" fill="#4D4D4D"/>
<path d="M916.278 207.699C914.289 207.699 913.052 209.101 913.052 211.404C913.052 213.715 914.289 215.109 916.278 215.109C918.268 215.109 919.512 213.715 919.512 211.404C919.512 209.101 918.268 207.699 916.278 207.699ZM916.278 208.547C917.714 208.547 918.575 209.572 918.575 211.404C918.575 213.243 917.714 214.262 916.278 214.262C914.85 214.262 913.988 213.243 913.988 211.404C913.988 209.572 914.85 208.547 916.278 208.547Z" fill="#4D4D4D"/>
<path d="M926.225 207.836L923.941 213.879L921.645 207.836H920.64L923.449 215H924.427L927.236 207.836H926.225Z" fill="#4D4D4D"/>
<path d="M934.523 210.837C934.523 208.834 933.348 207.699 931.584 207.699C929.581 207.699 928.364 209.148 928.364 211.459C928.364 213.612 929.41 215.109 931.516 215.109C933.013 215.109 933.956 214.337 934.435 213.257L933.662 212.888C933.341 213.681 932.671 214.262 931.563 214.262C930.066 214.262 929.328 213.195 929.294 211.698H934.523V210.837ZM931.557 208.547C932.773 208.547 933.573 209.265 933.573 210.762V210.898H929.308C929.417 209.545 930.162 208.547 931.557 208.547Z" fill="#4D4D4D"/>
<path d="M936.608 207.836V215H937.545V210.878C937.545 209.524 938.317 208.574 939.603 208.574C940.696 208.574 941.243 209.265 941.243 210.543V215H942.187V210.878C942.187 209.531 942.945 208.574 944.224 208.574C945.311 208.574 945.885 209.258 945.885 210.543V215H946.821V210.133C946.821 208.608 945.987 207.699 944.436 207.699C943.157 207.699 942.344 208.321 941.934 209.381C941.681 208.28 940.977 207.699 939.821 207.699C938.714 207.699 937.948 208.226 937.545 209.169V207.836H936.608Z" fill="#4D4D4D"/>
<path d="M949.31 215H950.239V213.517C950.718 214.692 951.6 215.109 952.673 215.109C954.71 215.109 955.729 213.599 955.729 211.404C955.729 209.203 954.703 207.699 952.687 207.699C951.606 207.699 950.704 208.137 950.246 209.265V204.972H949.31V215ZM952.522 214.262C951.101 214.262 950.246 213.195 950.246 211.404C950.246 209.606 951.114 208.547 952.522 208.547C953.938 208.547 954.785 209.613 954.785 211.404C954.785 213.188 953.944 214.262 952.522 214.262Z" fill="#4D4D4D"/>
<path d="M963.48 210.837C963.48 208.834 962.305 207.699 960.541 207.699C958.538 207.699 957.321 209.148 957.321 211.459C957.321 213.612 958.367 215.109 960.473 215.109C961.97 215.109 962.913 214.337 963.392 213.257L962.619 212.888C962.298 213.681 961.628 214.262 960.521 214.262C959.023 214.262 958.285 213.195 958.251 211.698H963.48V210.837ZM960.514 208.547C961.73 208.547 962.53 209.265 962.53 210.762V210.898H958.265C958.374 209.545 959.119 208.547 960.514 208.547Z" fill="#4D4D4D"/>
<path d="M965.565 207.836V215H966.502V211.363C966.502 209.654 967.315 208.677 968.771 208.677C968.977 208.677 969.168 208.697 969.38 208.725L969.435 207.829C969.229 207.788 969.024 207.768 968.826 207.768C967.773 207.768 966.878 208.253 966.502 209.422V207.836H965.565Z" fill="#4D4D4D"/>
<path d="M994.625 205.197V215H997.845C1000.63 215 1002.26 213.079 1002.26 210.051C1002.26 206.995 1000.6 205.197 997.858 205.197H994.625ZM995.596 206.127H997.667C1000.04 206.127 1001.27 207.535 1001.27 210.064C1001.27 212.594 1000.03 214.07 997.667 214.07H995.596V206.127Z" fill="#4D4D4D"/>
<path d="M1010.16 210.837C1010.16 208.834 1008.99 207.699 1007.22 207.699C1005.22 207.699 1004 209.148 1004 211.459C1004 213.612 1005.05 215.109 1007.16 215.109C1008.65 215.109 1009.6 214.337 1010.07 213.257L1009.3 212.888C1008.98 213.681 1008.31 214.262 1007.2 214.262C1005.71 214.262 1004.97 213.195 1004.93 211.698H1010.16V210.837ZM1007.2 208.547C1008.41 208.547 1009.21 209.265 1009.21 210.762V210.898H1004.95C1005.06 209.545 1005.8 208.547 1007.2 208.547Z" fill="#4D4D4D"/>
<path d="M1016.92 210.058L1017.83 209.859C1017.5 208.567 1016.56 207.699 1014.98 207.699C1012.94 207.699 1011.77 209.121 1011.77 211.418C1011.77 213.701 1012.92 215.109 1014.94 215.109C1016.53 215.109 1017.5 214.234 1017.83 212.901L1016.92 212.703C1016.68 213.715 1016 214.262 1014.94 214.262C1013.48 214.262 1012.71 213.216 1012.71 211.432C1012.71 209.6 1013.52 208.547 1014.96 208.547C1015.99 208.547 1016.68 209.087 1016.92 210.058Z" fill="#4D4D4D"/>
<path d="M1025.52 210.837C1025.52 208.834 1024.34 207.699 1022.58 207.699C1020.57 207.699 1019.36 209.148 1019.36 211.459C1019.36 213.612 1020.4 215.109 1022.51 215.109C1024.01 215.109 1024.95 214.337 1025.43 213.257L1024.66 212.888C1024.33 213.681 1023.66 214.262 1022.56 214.262C1021.06 214.262 1020.32 213.195 1020.29 211.698H1025.52V210.837ZM1022.55 208.547C1023.77 208.547 1024.57 209.265 1024.57 210.762V210.898H1020.3C1020.41 209.545 1021.16 208.547 1022.55 208.547Z" fill="#4D4D4D"/>
<path d="M1027.6 207.836V215H1028.54V210.878C1028.54 209.524 1029.31 208.574 1030.6 208.574C1031.69 208.574 1032.24 209.265 1032.24 210.543V215H1033.18V210.878C1033.18 209.531 1033.94 208.574 1035.22 208.574C1036.3 208.574 1036.88 209.258 1036.88 210.543V215H1037.81V210.133C1037.81 208.608 1036.98 207.699 1035.43 207.699C1034.15 207.699 1033.34 208.321 1032.93 209.381C1032.67 208.28 1031.97 207.699 1030.81 207.699C1029.71 207.699 1028.94 208.226 1028.54 209.169V207.836H1027.6Z" fill="#4D4D4D"/>
<path d="M1040.3 215H1041.23V213.517C1041.71 214.692 1042.59 215.109 1043.67 215.109C1045.7 215.109 1046.72 213.599 1046.72 211.404C1046.72 209.203 1045.7 207.699 1043.68 207.699C1042.6 207.699 1041.7 208.137 1041.24 209.265V204.972H1040.3V215ZM1043.52 214.262C1042.09 214.262 1041.24 213.195 1041.24 211.404C1041.24 209.606 1042.11 208.547 1043.52 208.547C1044.93 208.547 1045.78 209.613 1045.78 211.404C1045.78 213.188 1044.94 214.262 1043.52 214.262Z" fill="#4D4D4D"/>
<path d="M1054.47 210.837C1054.47 208.834 1053.3 207.699 1051.53 207.699C1049.53 207.699 1048.31 209.148 1048.31 211.459C1048.31 213.612 1049.36 215.109 1051.47 215.109C1052.96 215.109 1053.91 214.337 1054.38 213.257L1053.61 212.888C1053.29 213.681 1052.62 214.262 1051.51 214.262C1050.02 214.262 1049.28 213.195 1049.24 211.698H1054.47V210.837ZM1051.51 208.547C1052.72 208.547 1053.52 209.265 1053.52 210.762V210.898H1049.26C1049.37 209.545 1050.11 208.547 1051.51 208.547Z" fill="#4D4D4D"/>
<path d="M1056.56 207.836V215H1057.5V211.363C1057.5 209.654 1058.31 208.677 1059.76 208.677C1059.97 208.677 1060.16 208.697 1060.37 208.725L1060.43 207.829C1060.22 207.788 1060.02 207.768 1059.82 207.768C1058.77 207.768 1057.87 208.253 1057.5 209.422V207.836H1056.56Z" fill="#4D4D4D"/>
<path d="M1094.4 205.197V212.218C1094.4 213.435 1093.86 214.296 1092.52 214.296C1091.36 214.296 1090.5 213.667 1090.49 211.849L1089.52 211.944C1089.53 214.228 1090.81 215.226 1092.52 215.226C1094.36 215.226 1095.37 214.084 1095.37 212.238V205.197H1094.4Z" fill="#4D4D4D"/>
<path d="M1100.75 207.699C1099.12 207.699 1098.05 208.458 1097.65 209.675L1098.55 209.941C1098.85 209.053 1099.59 208.547 1100.73 208.547C1101.88 208.547 1102.46 209.039 1102.46 209.764C1102.46 210.659 1101.57 210.796 1100.43 210.946C1099.1 211.117 1097.52 211.302 1097.52 213.065C1097.52 214.337 1098.35 215.109 1099.83 215.109C1100.84 215.109 1101.87 214.754 1102.46 213.694V215H1103.39V209.873C1103.39 208.485 1102.41 207.699 1100.75 207.699ZM1100 214.262C1099.06 214.262 1098.46 213.893 1098.46 213.038C1098.46 211.965 1099.42 211.842 1100.48 211.691C1101.23 211.582 1101.99 211.459 1102.46 211.138V212.184C1102.46 213.496 1101.37 214.262 1100 214.262Z" fill="#4D4D4D"/>
<path d="M1105.89 207.836V215H1106.83V210.939C1106.83 209.606 1107.65 208.574 1109.03 208.574C1110.19 208.574 1110.76 209.292 1110.76 210.529V215H1111.69V210.188C1111.69 208.663 1110.84 207.699 1109.25 207.699C1108.04 207.699 1107.26 208.253 1106.83 209.196V207.836H1105.89Z" fill="#4D4D4D"/>
<path d="M1119.79 215V207.836H1118.85V211.869C1118.85 213.202 1118.03 214.234 1116.71 214.234C1115.62 214.234 1115.06 213.517 1115.06 212.272V207.836H1114.12V212.621C1114.12 214.159 1114.99 215.109 1116.49 215.109C1117.63 215.109 1118.42 214.556 1118.85 213.612V215H1119.79Z" fill="#4D4D4D"/>
<path d="M1125.1 207.699C1123.47 207.699 1122.4 208.458 1122 209.675L1122.9 209.941C1123.2 209.053 1123.94 208.547 1125.08 208.547C1126.23 208.547 1126.81 209.039 1126.81 209.764C1126.81 210.659 1125.92 210.796 1124.78 210.946C1123.45 211.117 1121.87 211.302 1121.87 213.065C1121.87 214.337 1122.7 215.109 1124.17 215.109C1125.19 215.109 1126.22 214.754 1126.81 213.694V215H1127.74V209.873C1127.74 208.485 1126.76 207.699 1125.1 207.699ZM1124.35 214.262C1123.41 214.262 1122.81 213.893 1122.81 213.038C1122.81 211.965 1123.77 211.842 1124.83 211.691C1125.58 211.582 1126.33 211.459 1126.81 211.138V212.184C1126.81 213.496 1125.72 214.262 1124.35 214.262Z" fill="#4D4D4D"/>
<path d="M1130.24 207.836V215H1131.17V211.363C1131.17 209.654 1131.99 208.677 1133.44 208.677C1133.65 208.677 1133.84 208.697 1134.05 208.725L1134.11 207.829C1133.9 207.788 1133.7 207.768 1133.5 207.768C1132.45 207.768 1131.55 208.253 1131.17 209.422V207.836H1130.24Z" fill="#4D4D4D"/>
<path d="M1140.6 207.836L1138.42 213.975L1136.12 207.836H1135.09L1137.94 215.096C1137.63 216.101 1137.14 216.641 1136.25 216.641C1135.95 216.641 1135.65 216.572 1135.35 216.483L1135.17 217.29C1135.56 217.413 1135.98 217.488 1136.36 217.488C1137.45 217.488 1138.26 216.907 1138.7 215.725L1141.61 207.836H1140.6Z" fill="#4D4D4D"/>
<path d="M701.655 55.2832C701.655 53.0684 702.558 51.0244 704.294 49.3975L703.706 48.748C701.758 50.4844 700.705 52.8018 700.705 55.2832C700.705 57.7578 701.758 60.0752 703.706 61.8115L704.294 61.1689C702.558 59.542 701.655 57.4912 701.655 55.2832Z" fill="black"/>
<path d="M706.447 50.1973V60H709.667C712.456 60 714.083 58.0791 714.083 55.0508C714.083 51.9951 712.422 50.1973 709.681 50.1973H706.447ZM707.418 51.127H709.489C711.861 51.127 713.092 52.5352 713.092 55.0645C713.092 57.5938 711.854 59.0703 709.489 59.0703H707.418V51.127Z" fill="black"/>
<path d="M719.053 52.6992C717.426 52.6992 716.359 53.458 715.956 54.6748L716.852 54.9414C717.152 54.0527 717.891 53.5469 719.039 53.5469C720.181 53.5469 720.762 54.0391 720.762 54.7637C720.762 55.6592 719.873 55.7959 718.738 55.9463C717.405 56.1172 715.826 56.3018 715.826 58.0654C715.826 59.3369 716.653 60.1094 718.13 60.1094C719.148 60.1094 720.174 59.7539 720.769 58.6943V60H721.698V54.873C721.698 53.4854 720.714 52.6992 719.053 52.6992ZM718.308 59.2617C717.364 59.2617 716.763 58.8926 716.763 58.0381C716.763 56.9648 717.727 56.8418 718.786 56.6914C719.538 56.582 720.29 56.459 720.762 56.1377V57.1836C720.762 58.4961 719.675 59.2617 718.308 59.2617Z" fill="black"/>
<path d="M725.198 50.1699H724.125V51.5508H725.198V50.1699ZM725.13 52.8359H724.193V60H725.13V52.8359Z" fill="black"/>
<path d="M727.693 49.9717V60H728.63V49.9717H727.693Z" fill="black"/>
<path d="M735.951 52.8359L733.771 58.9746L731.467 52.8359H730.441L733.285 60.0957C732.978 61.1006 732.492 61.6406 731.604 61.6406C731.296 61.6406 731.002 61.5723 730.701 61.4834L730.517 62.29C730.906 62.4131 731.33 62.4883 731.713 62.4883C732.8 62.4883 733.613 61.9072 734.051 60.7246L736.956 52.8359H735.951Z" fill="black"/>
<path d="M741.283 60H742.322L743.416 57.1289H747.873L748.967 60H750.006L746.239 50.1973H745.043L741.283 60ZM743.758 56.1992L745.645 51.2432L747.524 56.1992H743.758Z" fill="black"/>
<path d="M757.614 52.8359H756.671V54.2031C756.213 53.0957 755.311 52.6992 754.244 52.6992C752.207 52.6992 751.195 54.1621 751.195 56.0967C751.195 58.0586 752.228 59.5146 754.237 59.5146C755.338 59.5146 756.233 59.0771 756.671 57.9834V59.7881C756.671 61.0117 755.844 61.7773 754.456 61.7773C753.28 61.7773 752.501 61.2236 752.221 60.2803L751.325 60.5332C751.688 61.7705 752.809 62.625 754.449 62.625C756.37 62.625 757.614 61.4629 757.614 59.7676V52.8359ZM754.401 53.5469C755.816 53.5469 756.671 54.5654 756.671 56.1035C756.671 57.6484 755.816 58.6738 754.401 58.6738C752.993 58.6738 752.132 57.6484 752.132 56.1035C752.132 54.5723 752.979 53.5469 754.401 53.5469Z" fill="black"/>
<path d="M766.036 52.8359H765.093V54.2031C764.635 53.0957 763.732 52.6992 762.666 52.6992C760.629 52.6992 759.617 54.1621 759.617 56.0967C759.617 58.0586 760.649 59.5146 762.659 59.5146C763.76 59.5146 764.655 59.0771 765.093 57.9834V59.7881C765.093 61.0117 764.266 61.7773 762.878 61.7773C761.702 61.7773 760.923 61.2236 760.643 60.2803L759.747 60.5332C760.109 61.7705 761.23 62.625 762.871 62.625C764.792 62.625 766.036 61.4629 766.036 59.7676V52.8359ZM762.823 53.5469C764.238 53.5469 765.093 54.5654 765.093 56.1035C765.093 57.6484 764.238 58.6738 762.823 58.6738C761.415 58.6738 760.554 57.6484 760.554 56.1035C760.554 54.5723 761.401 53.5469 762.823 53.5469Z" fill="black"/>
<path d="M768.518 52.8359V60H769.454V56.3633C769.454 54.6543 770.268 53.6768 771.724 53.6768C771.929 53.6768 772.12 53.6973 772.332 53.7246L772.387 52.8291C772.182 52.7881 771.977 52.7676 771.778 52.7676C770.726 52.7676 769.83 53.2529 769.454 54.4219V52.8359H768.518Z" fill="black"/>
<path d="M779.571 55.8369C779.571 53.834 778.396 52.6992 776.632 52.6992C774.629 52.6992 773.412 54.1484 773.412 56.459C773.412 58.6123 774.458 60.1094 776.563 60.1094C778.061 60.1094 779.004 59.3369 779.482 58.2568L778.71 57.8877C778.389 58.6807 777.719 59.2617 776.611 59.2617C775.114 59.2617 774.376 58.1953 774.342 56.6982H779.571V55.8369ZM776.604 53.5469C777.821 53.5469 778.621 54.2646 778.621 55.7617V55.8984H774.355C774.465 54.5449 775.21 53.5469 776.604 53.5469Z" fill="black"/>
<path d="M787.597 52.8359H786.653V54.2031C786.195 53.0957 785.293 52.6992 784.227 52.6992C782.189 52.6992 781.178 54.1621 781.178 56.0967C781.178 58.0586 782.21 59.5146 784.22 59.5146C785.32 59.5146 786.216 59.0771 786.653 57.9834V59.7881C786.653 61.0117 785.826 61.7773 784.438 61.7773C783.263 61.7773 782.483 61.2236 782.203 60.2803L781.308 60.5332C781.67 61.7705 782.791 62.625 784.432 62.625C786.353 62.625 787.597 61.4629 787.597 59.7676V52.8359ZM784.384 53.5469C785.799 53.5469 786.653 54.5654 786.653 56.1035C786.653 57.6484 785.799 58.6738 784.384 58.6738C782.976 58.6738 782.114 57.6484 782.114 56.1035C782.114 54.5723 782.962 53.5469 784.384 53.5469Z" fill="black"/>
<path d="M792.826 52.6992C791.199 52.6992 790.133 53.458 789.729 54.6748L790.625 54.9414C790.926 54.0527 791.664 53.5469 792.812 53.5469C793.954 53.5469 794.535 54.0391 794.535 54.7637C794.535 55.6592 793.646 55.7959 792.512 55.9463C791.179 56.1172 789.6 56.3018 789.6 58.0654C789.6 59.3369 790.427 60.1094 791.903 60.1094C792.922 60.1094 793.947 59.7539 794.542 58.6943V60H795.472V54.873C795.472 53.4854 794.487 52.6992 792.826 52.6992ZM792.081 59.2617C791.138 59.2617 790.536 58.8926 790.536 58.0381C790.536 56.9648 791.5 56.8418 792.56 56.6914C793.312 56.582 794.063 56.459 794.535 56.1377V57.1836C794.535 58.4961 793.448 59.2617 792.081 59.2617Z" fill="black"/>
<path d="M801.269 52.8359H799.382V50.6074L798.445 50.8535V52.8359H797.03V53.6973H798.445V58.2979C798.445 58.79 798.445 60.1094 800.202 60.1094C800.605 60.1094 801.043 60.041 801.46 59.9248L801.364 59.1387C801.057 59.2207 800.763 59.2686 800.496 59.2686C799.553 59.2686 799.382 58.7148 799.382 58.0996V53.6973H801.269V52.8359Z" fill="black"/>
<path d="M804.386 50.1699H803.312V51.5508H804.386V50.1699ZM804.317 52.8359H803.381V60H804.317V52.8359Z" fill="black"/>
<path d="M809.629 52.6992C807.64 52.6992 806.402 54.1006 806.402 56.4043C806.402 58.7148 807.64 60.1094 809.629 60.1094C811.618 60.1094 812.862 58.7148 812.862 56.4043C812.862 54.1006 811.618 52.6992 809.629 52.6992ZM809.629 53.5469C811.064 53.5469 811.926 54.5723 811.926 56.4043C811.926 58.2432 811.064 59.2617 809.629 59.2617C808.2 59.2617 807.339 58.2432 807.339 56.4043C807.339 54.5723 808.2 53.5469 809.629 53.5469Z" fill="black"/>
<path d="M814.947 52.8359V60H815.884V55.9395C815.884 54.6064 816.704 53.5742 818.092 53.5742C819.247 53.5742 819.814 54.292 819.814 55.5293V60H820.751V55.1875C820.751 53.6631 819.896 52.6992 818.304 52.6992C817.101 52.6992 816.314 53.2529 815.884 54.1963V52.8359H814.947Z" fill="black"/>
<path d="M825.338 55.2832C825.338 57.4912 824.436 59.542 822.699 61.1689L823.287 61.8115C825.235 60.0752 826.288 57.7578 826.288 55.2832C826.288 52.8018 825.235 50.4844 823.287 48.748L822.699 49.3975C824.436 51.0244 825.338 53.0684 825.338 55.2832Z" fill="black"/>
<path d="M987.887 55.2832C987.887 53.0684 988.789 51.0244 990.525 49.3975L989.938 48.748C987.989 50.4844 986.937 52.8018 986.937 55.2832C986.937 57.7578 987.989 60.0752 989.938 61.8115L990.525 61.1689C988.789 59.542 987.887 57.4912 987.887 55.2832Z" fill="black"/>
<path d="M992.31 50.334V51.2363H997.43L993.861 54.7158L994.374 55.5156C994.75 55.3926 995.29 55.29 995.803 55.29C997.149 55.29 997.977 56.001 997.977 57.1631C997.977 58.4004 997.04 59.2207 995.659 59.2207C994.367 59.2207 993.438 58.5029 993.144 57.3887L992.2 57.6758C992.638 59.2002 993.93 60.1094 995.646 60.1094C997.655 60.1094 998.954 58.8584 998.954 57.1494C998.954 55.4746 997.717 54.4766 996.028 54.4766C995.762 54.4766 995.488 54.5039 995.208 54.5518L998.66 51.2432V50.334H992.31Z" fill="black"/>
<path d="M1006.65 50.1836C1003.14 50.2588 1000.83 52.2754 1000.83 55.7959C1000.83 58.7217 1002.43 60.1094 1004.48 60.1094C1006.43 60.1094 1007.91 58.8652 1007.91 56.8623C1007.91 55.085 1006.75 53.7656 1004.77 53.7656C1003.47 53.7656 1002.17 54.3467 1001.78 55.543C1001.88 52.8428 1003.58 51.168 1006.71 51.0996L1006.65 50.1836ZM1004.52 59.2139C1003.06 59.2139 1001.99 58.2773 1001.99 56.9102C1001.99 55.4678 1003.19 54.6201 1004.59 54.6201C1006.03 54.6201 1006.93 55.5293 1006.93 56.9033C1006.93 58.373 1005.9 59.2139 1004.52 59.2139Z" fill="black"/>
<path d="M1009.85 55.2217V56.0898H1013.22V55.2217H1009.85Z" fill="black"/>
<path d="M1020.91 56.9512V50.334H1019.76L1014.87 57.0264V57.8535H1019.96V60H1020.91V57.8535H1022.76V56.9512H1020.91ZM1019.96 56.9512H1015.98L1019.96 51.5303V56.9512Z" fill="black"/>
<path d="M1027.89 50.1973C1025.91 50.1973 1024.7 51.209 1024.7 52.7539C1024.7 53.752 1025.21 54.6475 1026.34 55.0303C1025.03 55.3174 1024.47 56.3154 1024.47 57.4229C1024.47 59.0635 1025.7 60.1094 1027.89 60.1094C1030.05 60.1094 1031.31 59.084 1031.31 57.416C1031.31 56.3154 1030.74 55.3174 1029.44 55.0303C1030.56 54.6475 1031.08 53.752 1031.08 52.7471C1031.08 51.209 1029.87 50.1973 1027.89 50.1973ZM1027.89 51.0859C1029.29 51.0859 1030.09 51.7354 1030.09 52.8564C1030.09 53.9639 1029.31 54.6201 1027.89 54.6201C1026.46 54.6201 1025.68 53.9639 1025.68 52.8564C1025.68 51.7354 1026.48 51.0859 1027.89 51.0859ZM1027.89 55.3721C1029.49 55.3721 1030.34 56.0693 1030.34 57.2656C1030.34 58.4893 1029.44 59.2207 1027.89 59.2207C1026.34 59.2207 1025.44 58.4893 1025.44 57.2588C1025.44 56.0693 1026.28 55.3721 1027.89 55.3721Z" fill="black"/>
<path d="M1038.11 60V55.5361H1043.49V60H1044.46V50.1973H1043.49V54.6064H1038.11V50.1973H1037.14V60H1038.11Z" fill="black"/>
<path d="M1047.15 52.8359V60H1048.08V56.3633C1048.08 54.6543 1048.9 53.6768 1050.35 53.6768C1050.56 53.6768 1050.75 53.6973 1050.96 53.7246L1051.02 52.8291C1050.81 52.7881 1050.61 52.7676 1050.41 52.7676C1049.36 52.7676 1048.46 53.2529 1048.08 54.4219V52.8359H1047.15Z" fill="black"/>
<path d="M1056.2 60H1062.02V59.0703H1057.17V50.1973H1056.2V60Z" fill="black"/>
<path d="M1066.71 52.6992C1065.08 52.6992 1064.02 53.458 1063.62 54.6748L1064.51 54.9414C1064.81 54.0527 1065.55 53.5469 1066.7 53.5469C1067.84 53.5469 1068.42 54.0391 1068.42 54.7637C1068.42 55.6592 1067.53 55.7959 1066.4 55.9463C1065.06 56.1172 1063.49 56.3018 1063.49 58.0654C1063.49 59.3369 1064.31 60.1094 1065.79 60.1094C1066.81 60.1094 1067.83 59.7539 1068.43 58.6943V60H1069.36V54.873C1069.36 53.4854 1068.37 52.6992 1066.71 52.6992ZM1065.97 59.2617C1065.02 59.2617 1064.42 58.8926 1064.42 58.0381C1064.42 56.9648 1065.39 56.8418 1066.45 56.6914C1067.2 56.582 1067.95 56.459 1068.42 56.1377V57.1836C1068.42 58.4961 1067.33 59.2617 1065.97 59.2617Z" fill="black"/>
<path d="M1075.15 52.8359H1073.27V50.6074L1072.33 50.8535V52.8359H1070.92V53.6973H1072.33V58.2979C1072.33 58.79 1072.33 60.1094 1074.09 60.1094C1074.49 60.1094 1074.93 60.041 1075.35 59.9248L1075.25 59.1387C1074.94 59.2207 1074.65 59.2686 1074.38 59.2686C1073.44 59.2686 1073.27 58.7148 1073.27 58.0996V53.6973H1075.15V52.8359Z" fill="black"/>
<path d="M1082.81 55.8369C1082.81 53.834 1081.63 52.6992 1079.87 52.6992C1077.87 52.6992 1076.65 54.1484 1076.65 56.459C1076.65 58.6123 1077.7 60.1094 1079.8 60.1094C1081.3 60.1094 1082.24 59.3369 1082.72 58.2568L1081.95 57.8877C1081.63 58.6807 1080.96 59.2617 1079.85 59.2617C1078.35 59.2617 1077.62 58.1953 1077.58 56.6982H1082.81V55.8369ZM1079.84 53.5469C1081.06 53.5469 1081.86 54.2646 1081.86 55.7617V55.8984H1077.59C1077.7 54.5449 1078.45 53.5469 1079.84 53.5469Z" fill="black"/>
<path d="M1084.9 52.8359V60H1085.83V55.9395C1085.83 54.6064 1086.65 53.5742 1088.04 53.5742C1089.2 53.5742 1089.76 54.292 1089.76 55.5293V60H1090.7V55.1875C1090.7 53.6631 1089.84 52.6992 1088.25 52.6992C1087.05 52.6992 1086.26 53.2529 1085.83 54.1963V52.8359H1084.9Z" fill="black"/>
<path d="M1097.87 55.0576L1098.78 54.8594C1098.45 53.5674 1097.51 52.6992 1095.93 52.6992C1093.88 52.6992 1092.72 54.1211 1092.72 56.418C1092.72 58.7012 1093.87 60.1094 1095.89 60.1094C1097.48 60.1094 1098.45 59.2344 1098.78 57.9014L1097.87 57.7031C1097.62 58.7148 1096.95 59.2617 1095.89 59.2617C1094.42 59.2617 1093.65 58.2158 1093.65 56.4316C1093.65 54.5996 1094.47 53.5469 1095.91 53.5469C1096.94 53.5469 1097.62 54.0869 1097.87 55.0576Z" fill="black"/>
<path d="M1105.54 52.8359L1103.36 58.9746L1101.06 52.8359H1100.03L1102.87 60.0957C1102.57 61.1006 1102.08 61.6406 1101.19 61.6406C1100.88 61.6406 1100.59 61.5723 1100.29 61.4834L1100.11 62.29C1100.5 62.4131 1100.92 62.4883 1101.3 62.4883C1102.39 62.4883 1103.2 61.9072 1103.64 60.7246L1106.54 52.8359H1105.54Z" fill="black"/>
<path d="M1110.11 55.2832C1110.11 57.4912 1109.2 59.542 1107.47 61.1689L1108.06 61.8115C1110 60.0752 1111.06 57.7578 1111.06 55.2832C1111.06 52.8018 1110 50.4844 1108.06 48.748L1107.47 49.3975C1109.2 51.0244 1110.11 53.0684 1110.11 55.2832Z" fill="black"/>
<path d="M407.203 35.2832C407.203 33.0684 408.105 31.0244 409.842 29.3975L409.254 28.748C407.306 30.4844 406.253 32.8018 406.253 35.2832C406.253 37.7578 407.306 40.0752 409.254 41.8115L409.842 41.1689C408.105 39.542 407.203 37.4912 407.203 35.2832Z" fill="black"/>
<path d="M419.966 30.1973L416.685 38.0723L413.396 30.1973H411.995V40H412.966V31.5986L416.124 39.0771H417.238L420.403 31.5986V40H421.367V30.1973H419.966Z" fill="black"/>
<path d="M426.815 32.6992C424.826 32.6992 423.589 34.1006 423.589 36.4043C423.589 38.7148 424.826 40.1094 426.815 40.1094C428.805 40.1094 430.049 38.7148 430.049 36.4043C430.049 34.1006 428.805 32.6992 426.815 32.6992ZM426.815 33.5469C428.251 33.5469 429.112 34.5723 429.112 36.4043C429.112 38.2432 428.251 39.2617 426.815 39.2617C425.387 39.2617 424.525 38.2432 424.525 36.4043C424.525 34.5723 425.387 33.5469 426.815 33.5469Z" fill="black"/>
<path d="M432.134 32.8359V40H433.07V35.9395C433.07 34.6064 433.891 33.5742 435.278 33.5742C436.434 33.5742 437.001 34.292 437.001 35.5293V40H437.938V35.1875C437.938 33.6631 437.083 32.6992 435.49 32.6992C434.287 32.6992 433.501 33.2529 433.07 34.1963V32.8359H432.134Z" fill="black"/>
<path d="M443.734 32.8359H441.848V30.6074L440.911 30.8535V32.8359H439.496V33.6973H440.911V38.2979C440.911 38.79 440.911 40.1094 442.668 40.1094C443.071 40.1094 443.509 40.041 443.926 39.9248L443.83 39.1387C443.522 39.2207 443.229 39.2686 442.962 39.2686C442.019 39.2686 441.848 38.7148 441.848 38.0996V33.6973H443.734V32.8359Z" fill="black"/>
<path d="M445.847 29.9717V40H446.783V35.9395C446.783 34.6064 447.604 33.5742 448.991 33.5742C450.146 33.5742 450.714 34.292 450.714 35.5293V40H451.65V35.1875C451.65 33.6631 450.796 32.6992 449.203 32.6992C448 32.6992 447.214 33.2529 446.783 34.1963V29.9717H445.847Z" fill="black"/>
<path d="M454.146 29.9717V40H455.082V29.9717H454.146Z" fill="black"/>
<path d="M462.403 32.8359L460.223 38.9746L457.919 32.8359H456.894L459.737 40.0957C459.43 41.1006 458.944 41.6406 458.056 41.6406C457.748 41.6406 457.454 41.5723 457.153 41.4834L456.969 42.29C457.358 42.4131 457.782 42.4883 458.165 42.4883C459.252 42.4883 460.065 41.9072 460.503 40.7246L463.408 32.8359H462.403Z" fill="black"/>
<path d="M467.735 40H468.774L469.868 37.1289H474.325L475.419 40H476.458L472.691 30.1973H471.495L467.735 40ZM470.21 36.1992L472.097 31.2432L473.977 36.1992H470.21Z" fill="black"/>
<path d="M484.066 32.8359H483.123V34.2031C482.665 33.0957 481.763 32.6992 480.696 32.6992C478.659 32.6992 477.647 34.1621 477.647 36.0967C477.647 38.0586 478.68 39.5146 480.689 39.5146C481.79 39.5146 482.686 39.0771 483.123 37.9834V39.7881C483.123 41.0117 482.296 41.7773 480.908 41.7773C479.732 41.7773 478.953 41.2236 478.673 40.2803L477.777 40.5332C478.14 41.7705 479.261 42.625 480.901 42.625C482.822 42.625 484.066 41.4629 484.066 39.7676V32.8359ZM480.854 33.5469C482.269 33.5469 483.123 34.5654 483.123 36.1035C483.123 37.6484 482.269 38.6738 480.854 38.6738C479.445 38.6738 478.584 37.6484 478.584 36.1035C478.584 34.5723 479.432 33.5469 480.854 33.5469Z" fill="black"/>
<path d="M492.488 32.8359H491.545V34.2031C491.087 33.0957 490.185 32.6992 489.118 32.6992C487.081 32.6992 486.069 34.1621 486.069 36.0967C486.069 38.0586 487.102 39.5146 489.111 39.5146C490.212 39.5146 491.107 39.0771 491.545 37.9834V39.7881C491.545 41.0117 490.718 41.7773 489.33 41.7773C488.154 41.7773 487.375 41.2236 487.095 40.2803L486.199 40.5332C486.562 41.7705 487.683 42.625 489.323 42.625C491.244 42.625 492.488 41.4629 492.488 39.7676V32.8359ZM489.275 33.5469C490.69 33.5469 491.545 34.5654 491.545 36.1035C491.545 37.6484 490.69 38.6738 489.275 38.6738C487.867 38.6738 487.006 37.6484 487.006 36.1035C487.006 34.5723 487.854 33.5469 489.275 33.5469Z" fill="black"/>
<path d="M494.97 32.8359V40H495.906V36.3633C495.906 34.6543 496.72 33.6768 498.176 33.6768C498.381 33.6768 498.572 33.6973 498.784 33.7246L498.839 32.8291C498.634 32.7881 498.429 32.7676 498.23 32.7676C497.178 32.7676 496.282 33.2529 495.906 34.4219V32.8359H494.97Z" fill="black"/>
<path d="M506.023 35.8369C506.023 33.834 504.848 32.6992 503.084 32.6992C501.081 32.6992 499.864 34.1484 499.864 36.459C499.864 38.6123 500.91 40.1094 503.016 40.1094C504.513 40.1094 505.456 39.3369 505.935 38.2568L505.162 37.8877C504.841 38.6807 504.171 39.2617 503.063 39.2617C501.566 39.2617 500.828 38.1953 500.794 36.6982H506.023V35.8369ZM503.057 33.5469C504.273 33.5469 505.073 34.2646 505.073 35.7617V35.8984H500.808C500.917 34.5449 501.662 33.5469 503.057 33.5469Z" fill="black"/>
<path d="M514.049 32.8359H513.105V34.2031C512.647 33.0957 511.745 32.6992 510.679 32.6992C508.642 32.6992 507.63 34.1621 507.63 36.0967C507.63 38.0586 508.662 39.5146 510.672 39.5146C511.772 39.5146 512.668 39.0771 513.105 37.9834V39.7881C513.105 41.0117 512.278 41.7773 510.891 41.7773C509.715 41.7773 508.936 41.2236 508.655 40.2803L507.76 40.5332C508.122 41.7705 509.243 42.625 510.884 42.625C512.805 42.625 514.049 41.4629 514.049 39.7676V32.8359ZM510.836 33.5469C512.251 33.5469 513.105 34.5654 513.105 36.1035C513.105 37.6484 512.251 38.6738 510.836 38.6738C509.428 38.6738 508.566 37.6484 508.566 36.1035C508.566 34.5723 509.414 33.5469 510.836 33.5469Z" fill="black"/>
<path d="M519.278 32.6992C517.651 32.6992 516.585 33.458 516.182 34.6748L517.077 34.9414C517.378 34.0527 518.116 33.5469 519.265 33.5469C520.406 33.5469 520.987 34.0391 520.987 34.7637C520.987 35.6592 520.099 35.7959 518.964 35.9463C517.631 36.1172 516.052 36.3018 516.052 38.0654C516.052 39.3369 516.879 40.1094 518.355 40.1094C519.374 40.1094 520.399 39.7539 520.994 38.6943V40H521.924V34.873C521.924 33.4854 520.939 32.6992 519.278 32.6992ZM518.533 39.2617C517.59 39.2617 516.988 38.8926 516.988 38.0381C516.988 36.9648 517.952 36.8418 519.012 36.6914C519.764 36.582 520.516 36.459 520.987 36.1377V37.1836C520.987 38.4961 519.9 39.2617 518.533 39.2617Z" fill="black"/>
<path d="M527.721 32.8359H525.834V30.6074L524.897 30.8535V32.8359H523.482V33.6973H524.897V38.2979C524.897 38.79 524.897 40.1094 526.654 40.1094C527.058 40.1094 527.495 40.041 527.912 39.9248L527.816 39.1387C527.509 39.2207 527.215 39.2686 526.948 39.2686C526.005 39.2686 525.834 38.7148 525.834 38.0996V33.6973H527.721V32.8359Z" fill="black"/>
<path d="M530.838 30.1699H529.765V31.5508H530.838V30.1699ZM530.77 32.8359H529.833V40H530.77V32.8359Z" fill="black"/>
<path d="M536.081 32.6992C534.092 32.6992 532.854 34.1006 532.854 36.4043C532.854 38.7148 534.092 40.1094 536.081 40.1094C538.07 40.1094 539.314 38.7148 539.314 36.4043C539.314 34.1006 538.07 32.6992 536.081 32.6992ZM536.081 33.5469C537.517 33.5469 538.378 34.5723 538.378 36.4043C538.378 38.2432 537.517 39.2617 536.081 39.2617C534.652 39.2617 533.791 38.2432 533.791 36.4043C533.791 34.5723 534.652 33.5469 536.081 33.5469Z" fill="black"/>
<path d="M541.399 32.8359V40H542.336V35.9395C542.336 34.6064 543.156 33.5742 544.544 33.5742C545.699 33.5742 546.267 34.292 546.267 35.5293V40H547.203V35.1875C547.203 33.6631 546.349 32.6992 544.756 32.6992C543.553 32.6992 542.767 33.2529 542.336 34.1963V32.8359H541.399Z" fill="black"/>
<path d="M551.79 35.2832C551.79 37.4912 550.888 39.542 549.151 41.1689L549.739 41.8115C551.688 40.0752 552.74 37.7578 552.74 35.2832C552.74 32.8018 551.688 30.4844 549.739 28.748L549.151 29.3975C550.888 31.0244 551.79 33.0684 551.79 35.2832Z" fill="black"/>
<path d="M360.138 1.12012H358.195C356.825 2.45654 355.219 3.2876 353.389 3.62451V5.89307C355.174 5.57861 356.679 5.00586 357.892 3.89404V17H360.138V1.12012Z" fill="black"/>
<path d="M375.366 17V14.8774H366C366.438 13.8442 367.696 12.9458 368.617 12.3281L370.998 10.7446C372.974 9.43066 374.996 8.13916 374.996 5.33154C374.996 2.64746 373.165 0.884277 369.841 0.884277C365.955 0.884277 363.63 3.26514 363.585 6.54443L365.865 6.72412C365.888 4.4668 367.325 2.98438 369.684 2.98438C371.559 2.98438 372.693 3.93896 372.693 5.37646C372.693 7.18457 370.908 8.33008 369.751 9.08252L367.539 10.52C365.068 12.126 363.282 14.0801 363.282 16.2139V17H375.366Z" fill="black"/>
<path d="M382.89 5.07324V17H385.113V10.374C385.113 8.46484 386.304 6.90381 388.404 6.90381C390.167 6.90381 391.077 8.00439 391.077 9.93604V17H393.3V10.374C393.3 8.45361 394.479 6.90381 396.568 6.90381C398.343 6.90381 399.275 7.99316 399.275 9.93604V17H401.487V9.00391C401.487 6.48828 399.938 4.84863 397.13 4.84863C394.648 4.84863 393.356 6.12891 392.728 7.54395C392.166 5.83691 391.054 4.84863 389.01 4.84863C386.854 4.84863 385.72 5.9043 385.113 7.03857V5.07324H382.89Z" fill="black"/>
<path d="M409.719 4.84863C406.069 4.84863 403.722 7.29688 403.722 11.0254C403.722 14.7427 406.069 17.1797 409.719 17.1797C413.38 17.1797 415.716 14.7427 415.716 11.0254C415.716 7.29688 413.38 4.84863 409.719 4.84863ZM409.719 6.83643C412.032 6.83643 413.503 8.375 413.503 11.0254C413.503 13.6646 412.032 15.2031 409.719 15.2031C407.417 15.2031 405.945 13.6646 405.945 11.0254C405.945 8.375 407.417 6.83643 409.719 6.83643Z" fill="black"/>
<path d="M418.085 5.07324V17H420.309V10.5425C420.309 8.56592 421.589 6.90381 423.936 6.90381C425.868 6.90381 426.856 8.03809 426.856 10.0371V17H429.068V9.17236C429.068 6.52197 427.395 4.84863 424.464 4.84863C422.128 4.84863 420.96 5.91553 420.309 7.0835V5.07324H418.085Z" fill="black"/>
<path d="M438.805 5.07324H435.346V1.46826L433.122 2.07471V5.07324H430.64V7.10596H433.122V13.6982C433.122 15.832 434.009 17.1797 436.75 17.1797C437.513 17.1797 438.333 17.0674 439.164 16.8652L438.951 15.0122C438.389 15.1357 437.861 15.2031 437.401 15.2031C435.346 15.2031 435.346 13.8892 435.346 13.2939V7.10596H438.805V5.07324Z" fill="black"/>
<path d="M441.264 0.524902V17H443.487V10.5425C443.487 8.56592 444.768 6.90381 447.115 6.90381C449.046 6.90381 450.035 8.03809 450.035 10.0371V17H452.247V9.17236C452.247 6.52197 450.574 4.84863 447.643 4.84863C445.307 4.84863 444.139 5.91553 443.487 7.0835V0.524902H441.264Z" fill="black"/>
<path d="M460.22 5.07324V17H462.443V11.1602C462.443 8.53223 463.611 7.10596 466.217 7.10596C466.621 7.10596 467.025 7.13965 467.463 7.1958L467.576 5.07324C467.194 5.00586 466.767 4.96094 466.352 4.96094C464.701 4.96094 463.207 5.53369 462.443 7.36426V5.07324H460.22Z" fill="black"/>
<path d="M479.67 10.2168C479.67 6.87012 477.492 4.84863 474.167 4.84863C470.54 4.84863 468.137 7.25195 468.137 11.0928C468.137 14.7314 470.293 17.1797 474.089 17.1797C476.694 17.1797 478.379 16.0117 479.479 14.4058L477.728 13.3726C477.087 14.3608 476.032 15.2031 474.201 15.2031C471.809 15.2031 470.473 13.7432 470.349 11.8003H479.67V10.2168ZM474.145 6.8252C476.155 6.8252 477.379 7.84717 477.447 9.94727H470.36C470.641 8.07178 471.921 6.8252 474.145 6.8252Z" fill="black"/>
<path d="M488.744 5.07324H485.285V1.46826L483.062 2.07471V5.07324H480.58V7.10596H483.062V13.6982C483.062 15.832 483.949 17.1797 486.689 17.1797C487.453 17.1797 488.272 17.0674 489.104 16.8652L488.89 15.0122C488.329 15.1357 487.801 15.2031 487.34 15.2031C485.285 15.2031 485.285 13.8892 485.285 13.2939V7.10596H488.744V5.07324Z" fill="black"/>
<path d="M501.726 10.2168C501.726 6.87012 499.547 4.84863 496.223 4.84863C492.596 4.84863 490.192 7.25195 490.192 11.0928C490.192 14.7314 492.349 17.1797 496.145 17.1797C498.75 17.1797 500.435 16.0117 501.535 14.4058L499.783 13.3726C499.143 14.3608 498.087 15.2031 496.257 15.2031C493.865 15.2031 492.528 13.7432 492.405 11.8003H501.726V10.2168ZM496.201 6.8252C498.211 6.8252 499.435 7.84717 499.502 9.94727H492.416C492.697 8.07178 493.977 6.8252 496.201 6.8252Z" fill="black"/>
<path d="M504.084 5.07324V17H506.308V10.5425C506.308 8.56592 507.588 6.90381 509.935 6.90381C511.867 6.90381 512.855 8.03809 512.855 10.0371V17H515.067V9.17236C515.067 6.52197 513.394 4.84863 510.463 4.84863C508.127 4.84863 506.959 5.91553 506.308 7.0835V5.07324H504.084Z" fill="black"/>
<path d="M524.804 5.07324H521.345V1.46826L519.121 2.07471V5.07324H516.639V7.10596H519.121V13.6982C519.121 15.832 520.008 17.1797 522.749 17.1797C523.512 17.1797 524.332 17.0674 525.163 16.8652L524.95 15.0122C524.388 15.1357 523.86 15.2031 523.4 15.2031C521.345 15.2031 521.345 13.8892 521.345 13.2939V7.10596H524.804V5.07324Z" fill="black"/>
<path d="M529.644 0.513672H527.105V3.09668H529.644V0.513672ZM529.486 5.07324H527.263V17H529.486V5.07324Z" fill="black"/>
<path d="M537.83 4.84863C534.18 4.84863 531.833 7.29688 531.833 11.0254C531.833 14.7427 534.18 17.1797 537.83 17.1797C541.491 17.1797 543.827 14.7427 543.827 11.0254C543.827 7.29688 541.491 4.84863 537.83 4.84863ZM537.83 6.83643C540.144 6.83643 541.615 8.375 541.615 11.0254C541.615 13.6646 540.144 15.2031 537.83 15.2031C535.528 15.2031 534.057 13.6646 534.057 11.0254C534.057 8.375 535.528 6.83643 537.83 6.83643Z" fill="black"/>
<path d="M546.196 5.07324V17H548.42V10.5425C548.42 8.56592 549.7 6.90381 552.047 6.90381C553.979 6.90381 554.967 8.03809 554.967 10.0371V17H557.18V9.17236C557.18 6.52197 555.506 4.84863 552.575 4.84863C550.239 4.84863 549.071 5.91553 548.42 7.0835V5.07324H546.196Z" fill="black"/>
<path d="M565.152 5.07324V21.3462H567.376V14.7202C568.196 16.1802 569.454 17 571.531 17C575.406 17 577.158 14.1475 577.158 10.9131C577.158 7.65625 575.383 4.84863 571.554 4.84863C569.476 4.84863 568.196 5.67969 567.376 7.11719V5.07324H565.152ZM571.149 15.0234C568.825 15.0234 567.376 13.3838 567.376 10.9131C567.376 8.44238 568.802 6.83643 571.149 6.83643C573.497 6.83643 574.934 8.44238 574.934 10.9131C574.934 13.3838 573.485 15.0234 571.149 15.0234Z" fill="black"/>
<path d="M590.263 10.2168C590.263 6.87012 588.084 4.84863 584.76 4.84863C581.133 4.84863 578.729 7.25195 578.729 11.0928C578.729 14.7314 580.886 17.1797 584.682 17.1797C587.287 17.1797 588.972 16.0117 590.072 14.4058L588.32 13.3726C587.68 14.3608 586.625 15.2031 584.794 15.2031C582.402 15.2031 581.065 13.7432 580.942 11.8003H590.263V10.2168ZM584.738 6.8252C586.748 6.8252 587.972 7.84717 588.04 9.94727H580.953C581.234 8.07178 582.514 6.8252 584.738 6.8252Z" fill="black"/>
<path d="M592.621 5.07324V17H594.845V11.1602C594.845 8.53223 596.013 7.10596 598.618 7.10596C599.022 7.10596 599.427 7.13965 599.865 7.1958L599.977 5.07324C599.595 5.00586 599.168 4.96094 598.753 4.96094C597.102 4.96094 595.608 5.53369 594.845 7.36426V5.07324H592.621Z" fill="black"/>
<path d="M604.042 0.513672H601.504V3.09668H604.042V0.513672ZM603.885 5.07324H601.661V17H603.885V5.07324Z" fill="black"/>
<path d="M612.229 4.84863C608.579 4.84863 606.231 7.29688 606.231 11.0254C606.231 14.7427 608.579 17.1797 612.229 17.1797C615.89 17.1797 618.226 14.7427 618.226 11.0254C618.226 7.29688 615.89 4.84863 612.229 4.84863ZM612.229 6.83643C614.542 6.83643 616.013 8.375 616.013 11.0254C616.013 13.6646 614.542 15.2031 612.229 15.2031C609.926 15.2031 608.455 13.6646 608.455 11.0254C608.455 8.375 609.926 6.83643 612.229 6.83643Z" fill="black"/>
<path d="M631.814 17V0.524902H629.59V7.11719C628.771 5.56738 627.378 4.84863 625.424 4.84863C621.572 4.84863 619.809 7.66748 619.809 11.0029C619.809 14.3159 621.561 17.1797 625.458 17.1797C627.412 17.1797 628.793 16.4722 629.613 14.855V17H631.814ZM625.817 15.2031C623.458 15.2031 622.032 13.5522 622.032 11.0029C622.032 8.43115 623.47 6.83643 625.817 6.83643C628.153 6.83643 629.59 8.43115 629.59 11.0029C629.59 13.5522 628.164 15.2031 625.817 15.2031Z" fill="black"/>
<path d="M324 1H341V18H324V1Z" fill="#C0A6E6"/>
</svg>
